<svg width="72" height="30" viewBox="0 0 72 30" fill="none" xmlns="http://www.w3.org/2000/svg">
<path d="M56.9902 26.8203C56.9902 26.2185 56.9902 25.6709 56.9902 25.1775C56.9902 24.6841 56.9902 24.1365 56.9902 23.5348C57.5698 23.5348 58.1085 23.5348 58.6065 23.5348C59.1072 23.5348 59.6488 23.5348 60.2312 23.5348C60.2312 24.1365 60.2312 24.6841 60.2312 25.1775C60.2312 25.6709 60.2312 26.2185 60.2312 26.8203C59.6488 26.8203 59.1072 26.8203 58.6065 26.8203C58.1085 26.8203 57.5698 26.8203 56.9902 26.8203ZM56.9902 26.8203C56.9902 26.2185 56.9902 25.6709 56.9902 25.1775C56.9902 24.6841 56.9902 24.1365 56.9902 23.5348C57.5698 23.5348 58.1085 23.5348 58.6065 23.5348C59.1072 23.5348 59.6488 23.5348 60.2312 23.5348C60.2312 24.1365 60.2312 24.6841 60.2312 25.1775C60.2312 25.6709 60.2312 26.2185 60.2312 26.8203C59.6488 26.8203 59.1072 26.8203 58.6065 26.8203C58.1085 26.8203 57.5698 26.8203 56.9902 26.8203ZM56.9902 26.8203C56.9902 26.2185 56.9902 25.6709 56.9902 25.1775C56.9902 24.6841 56.9902 24.1365 56.9902 23.5348C57.5698 23.5348 58.1085 23.5348 58.6065 23.5348C59.1072 23.5348 59.6488 23.5348 60.2312 23.5348C60.2312 24.1365 60.2312 24.6841 60.2312 25.1775C60.2312 25.6709 60.2312 26.2185 60.2312 26.8203C59.6488 26.8203 59.1072 26.8203 58.6065 26.8203C58.1085 26.8203 57.5698 26.8203 56.9902 26.8203ZM56.9902 26.8203C56.9902 26.2185 56.9902 25.6709 56.9902 25.1775C56.9902 24.6841 56.9902 24.1365 56.9902 23.5348C57.5698 23.5348 58.1085 23.5348 58.6065 23.5348C59.1072 23.5348 59.6488 23.5348 60.2312 23.5348C60.2312 24.1365 60.2312 24.6841 60.2312 25.1775C60.2312 25.6709 60.2312 26.2185 60.2312 26.8203C59.6488 26.8203 59.1072 26.8203 58.6065 26.8203C58.1085 26.8203 57.5698 26.8203 56.9902 26.8203ZM56.9902 26.8203C56.9902 26.2185 56.9902 25.6709 56.9902 25.1775C56.9902 24.6841 56.9902 24.1365 56.9902 23.5348C57.5698 23.5348 58.1085 23.5348 58.6065 23.5348C59.1072 23.5348 59.6488 23.5348 60.2312 23.5348C60.2312 24.1365 60.2312 24.6841 60.2312 25.1775C60.2312 25.6709 60.2312 26.2185 60.2312 26.8203C59.6488 26.8203 59.1072 26.8203 58.6065 26.8203C58.1085 26.8203 57.5698 26.8203 56.9902 26.8203ZM56.9902 26.8203C56.9902 26.2185 56.9902 25.6709 56.9902 25.1775C56.9902 24.6841 56.9902 24.1365 56.9902 23.5348C57.5698 23.5348 58.1085 23.5348 58.6065 23.5348C59.1072 23.5348 59.6488 23.5348 60.2312 23.5348C60.2312 24.1365 60.2312 24.6841 60.2312 25.1775C60.2312 25.6709 60.2312 26.2185 60.2312 26.8203C59.6488 26.8203 59.1072 26.8203 58.6065 26.8203C58.1085 26.8203 57.5698 26.8203 56.9902 26.8203ZM56.9902 26.8203C56.9902 26.2185 56.9902 25.6709 56.9902 25.1775C56.9902 24.6841 56.9902 24.1365 56.9902 23.5348C57.5698 23.5348 58.1085 23.5348 58.6065 23.5348C59.1072 23.5348 59.6488 23.5348 60.2312 23.5348C60.2312 24.1365 60.2312 24.6841 60.2312 25.1775C60.2312 25.6709 60.2312 26.2185 60.2312 26.8203C59.6488 26.8203 59.1072 26.8203 58.6065 26.8203C58.1085 26.8203 57.5698 26.8203 56.9902 26.8203ZM56.9902 26.8203C56.9902 26.2185 56.9902 25.6709 56.9902 25.1775C56.9902 24.6841 56.9902 24.1365 56.9902 23.5348C57.5698 23.5348 58.1085 23.5348 58.6065 23.5348C59.1072 23.5348 59.6488 23.5348 60.2312 23.5348C60.2312 24.1365 60.2312 24.6841 60.2312 25.1775C60.2312 25.6709 60.2312 26.2185 60.2312 26.8203C59.6488 26.8203 59.1072 26.8203 58.6065 26.8203C58.1085 26.8203 57.5698 26.8203 56.9902 26.8203ZM56.9902 26.8203C56.9902 26.2185 56.9902 25.6709 56.9902 25.1775C56.9902 24.6841 56.9902 24.1365 56.9902 23.5348C57.5698 23.5348 58.1085 23.5348 58.6065 23.5348C59.1072 23.5348 59.6488 23.5348 60.2312 23.5348C60.2312 24.1365 60.2312 24.6841 60.2312 25.1775C60.2312 25.6709 60.2312 26.2185 60.2312 26.8203C59.6488 26.8203 59.1072 26.8203 58.6065 26.8203C58.1085 26.8203 57.5698 26.8203 56.9902 26.8203ZM65.0925 26.8203C65.0925 26.2185 65.0925 25.6709 65.0925 25.1775C65.0925 24.6841 65.0925 24.1365 65.0925 23.5348C65.6721 23.5348 66.2108 23.5348 66.7088 23.5348C67.2095 23.5348 67.7511 23.5348 68.3335 23.5348C68.3335 24.1365 68.3335 24.6841 68.3335 25.1775C68.3335 25.6709 68.3335 26.2185 68.3335 26.8203C67.7511 26.8203 67.2095 26.8203 66.7088 26.8203C66.2108 26.8203 65.6721 26.8203 65.0925 26.8203ZM65.0925 26.8203C65.0925 26.2185 65.0925 25.6709 65.0925 25.1775C65.0925 24.6841 65.0925 24.1365 65.0925 23.5348C65.6721 23.5348 66.2108 23.5348 66.7088 23.5348C67.2095 23.5348 67.7511 23.5348 68.3335 23.5348C68.3335 24.1365 68.3335 24.6841 68.3335 25.1775C68.3335 25.6709 68.3335 26.2185 68.3335 26.8203C67.7511 26.8203 67.2095 26.8203 66.7088 26.8203C66.2108 26.8203 65.6721 26.8203 65.0925 26.8203ZM65.0925 26.8203C65.0925 26.2185 65.0925 25.6709 65.0925 25.1775C65.0925 24.6841 65.0925 24.1365 65.0925 23.5348C65.6721 23.5348 66.2108 23.5348 66.7088 23.5348C67.2095 23.5348 67.7511 23.5348 68.3335 23.5348C68.3335 24.1365 68.3335 24.6841 68.3335 25.1775C68.3335 25.6709 68.3335 26.2185 68.3335 26.8203C67.7511 26.8203 67.2095 26.8203 66.7088 26.8203C66.2108 26.8203 65.6721 26.8203 65.0925 26.8203ZM65.0925 26.8203C65.0925 26.2185 65.0925 25.6709 65.0925 25.1775C65.0925 24.6841 65.0925 24.1365 65.0925 23.5348C65.6721 23.5348 66.2108 23.5348 66.7088 23.5348C67.2095 23.5348 67.7511 23.5348 68.3335 23.5348C68.3335 24.1365 68.3335 24.6841 68.3335 25.1775C68.3335 25.6709 68.3335 26.2185 68.3335 26.8203C67.7511 26.8203 67.2095 26.8203 66.7088 26.8203C66.2108 26.8203 65.6721 26.8203 65.0925 26.8203ZM65.0925 26.8203C65.0925 26.2185 65.0925 25.6709 65.0925 25.1775C65.0925 24.6841 65.0925 24.1365 65.0925 23.5348C65.6721 23.5348 66.2108 23.5348 66.7088 23.5348C67.2095 23.5348 67.7511 23.5348 68.3335 23.5348C68.3335 24.1365 68.3335 24.6841 68.3335 25.1775C68.3335 25.6709 68.3335 26.2185 68.3335 26.8203C67.7511 26.8203 67.2095 26.8203 66.7088 26.8203C66.2108 26.8203 65.6721 26.8203 65.0925 26.8203ZM65.0925 26.8203C65.0925 26.2185 65.0925 25.6709 65.0925 25.1775C65.0925 24.6841 65.0925 24.1365 65.0925 23.5348C65.6721 23.5348 66.2108 23.5348 66.7088 23.5348C67.2095 23.5348 67.7511 23.5348 68.3335 23.5348C68.3335 24.1365 68.3335 24.6841 68.3335 25.1775C68.3335 25.6709 68.3335 26.2185 68.3335 26.8203C67.7511 26.8203 67.2095 26.8203 66.7088 26.8203C66.2108 26.8203 65.6721 26.8203 65.0925 26.8203ZM65.0925 26.8203C65.0925 26.2185 65.0925 25.6709 65.0925 25.1775C65.0925 24.6841 65.0925 24.1365 65.0925 23.5348C65.6721 23.5348 66.2108 23.5348 66.7088 23.5348C67.2095 23.5348 67.7511 23.5348 68.3335 23.5348C68.3335 24.1365 68.3335 24.6841 68.3335 25.1775C68.3335 25.6709 68.3335 26.2185 68.3335 26.8203C67.7511 26.8203 67.2095 26.8203 66.7088 26.8203C66.2108 26.8203 65.6721 26.8203 65.0925 26.8203ZM65.0925 26.8203C65.0925 26.2185 65.0925 25.6709 65.0925 25.1775C65.0925 24.6841 65.0925 24.1365 65.0925 23.5348C65.6721 23.5348 66.2108 23.5348 66.7088 23.5348C67.2095 23.5348 67.7511 23.5348 68.3335 23.5348C68.3335 24.1365 68.3335 24.6841 68.3335 25.1775C68.3335 25.6709 68.3335 26.2185 68.3335 26.8203C67.7511 26.8203 67.2095 26.8203 66.7088 26.8203C66.2108 26.8203 65.6721 26.8203 65.0925 26.8203ZM65.0925 26.8203C65.0925 26.2185 65.0925 25.6709 65.0925 25.1775C65.0925 24.6841 65.0925 24.1365 65.0925 23.5348C65.6721 23.5348 66.2108 23.5348 66.7088 23.5348C67.2095 23.5348 67.7511 23.5348 68.3335 23.5348C68.3335 24.1365 68.3335 24.6841 68.3335 25.1775C68.3335 25.6709 68.3335 26.2185 68.3335 26.8203C67.7511 26.8203 67.2095 26.8203 66.7088 26.8203C66.2108 26.8203 65.6721 26.8203 65.0925 26.8203ZM56.9902 24.7668C56.9902 24.1651 56.9902 23.6175 56.9902 23.1241C56.9902 22.6307 56.9902 22.0831 56.9902 21.4813C57.5698 21.4813 58.1085 21.4813 58.6065 21.4813C59.1072 21.4813 59.6488 21.4813 60.2312 21.4813C60.2312 22.0831 60.2312 22.6307 60.2312 23.1241C60.2312 23.6175 60.2312 24.1651 60.2312 24.7668C59.6488 24.7668 59.1072 24.7668 58.6065 24.7668C58.1085 24.7668 57.5698 24.7668 56.9902 24.7668ZM56.9902 24.7668C56.9902 24.1651 56.9902 23.6175 56.9902 23.1241C56.9902 22.6307 56.9902 22.0831 56.9902 21.4813C57.5698 21.4813 58.1085 21.4813 58.6065 21.4813C59.1072 21.4813 59.6488 21.4813 60.2312 21.4813C60.2312 22.0831 60.2312 22.6307 60.2312 23.1241C60.2312 23.6175 60.2312 24.1651 60.2312 24.7668C59.6488 24.7668 59.1072 24.7668 58.6065 24.7668C58.1085 24.7668 57.5698 24.7668 56.9902 24.7668ZM56.9902 24.7668C56.9902 24.1651 56.9902 23.6175 56.9902 23.1241C56.9902 22.6307 56.9902 22.0831 56.9902 21.4813C57.5698 21.4813 58.1085 21.4813 58.6065 21.4813C59.1072 21.4813 59.6488 21.4813 60.2312 21.4813C60.2312 22.0831 60.2312 22.6307 60.2312 23.1241C60.2312 23.6175 60.2312 24.1651 60.2312 24.7668C59.6488 24.7668 59.1072 24.7668 58.6065 24.7668C58.1085 24.7668 57.5698 24.7668 56.9902 24.7668ZM56.9902 24.7668C56.9902 24.1651 56.9902 23.6175 56.9902 23.1241C56.9902 22.6307 56.9902 22.0831 56.9902 21.4813C57.5698 21.4813 58.1085 21.4813 58.6065 21.4813C59.1072 21.4813 59.6488 21.4813 60.2312 21.4813C60.2312 22.0831 60.2312 22.6307 60.2312 23.1241C60.2312 23.6175 60.2312 24.1651 60.2312 24.7668C59.6488 24.7668 59.1072 24.7668 58.6065 24.7668C58.1085 24.7668 57.5698 24.7668 56.9902 24.7668ZM56.9902 24.7668C56.9902 24.1651 56.9902 23.6175 56.9902 23.1241C56.9902 22.6307 56.9902 22.0831 56.9902 21.4813C57.5698 21.4813 58.1085 21.4813 58.6065 21.4813C59.1072 21.4813 59.6488 21.4813 60.2312 21.4813C60.2312 22.0831 60.2312 22.6307 60.2312 23.1241C60.2312 23.6175 60.2312 24.1651 60.2312 24.7668C59.6488 24.7668 59.1072 24.7668 58.6065 24.7668C58.1085 24.7668 57.5698 24.7668 56.9902 24.7668ZM56.9902 24.7668C56.9902 24.1651 56.9902 23.6175 56.9902 23.1241C56.9902 22.6307 56.9902 22.0831 56.9902 21.4813C57.5698 21.4813 58.1085 21.4813 58.6065 21.4813C59.1072 21.4813 59.6488 21.4813 60.2312 21.4813C60.2312 22.0831 60.2312 22.6307 60.2312 23.1241C60.2312 23.6175 60.2312 24.1651 60.2312 24.7668C59.6488 24.7668 59.1072 24.7668 58.6065 24.7668C58.1085 24.7668 57.5698 24.7668 56.9902 24.7668ZM56.9902 24.7668C56.9902 24.1651 56.9902 23.6175 56.9902 23.1241C56.9902 22.6307 56.9902 22.0831 56.9902 21.4813C57.5698 21.4813 58.1085 21.4813 58.6065 21.4813C59.1072 21.4813 59.6488 21.4813 60.2312 21.4813C60.2312 22.0831 60.2312 22.6307 60.2312 23.1241C60.2312 23.6175 60.2312 24.1651 60.2312 24.7668C59.6488 24.7668 59.1072 24.7668 58.6065 24.7668C58.1085 24.7668 57.5698 24.7668 56.9902 24.7668ZM56.9902 24.7668C56.9902 24.1651 56.9902 23.6175 56.9902 23.1241C56.9902 22.6307 56.9902 22.0831 56.9902 21.4813C57.5698 21.4813 58.1085 21.4813 58.6065 21.4813C59.1072 21.4813 59.6488 21.4813 60.2312 21.4813C60.2312 22.0831 60.2312 22.6307 60.2312 23.1241C60.2312 23.6175 60.2312 24.1651 60.2312 24.7668C59.6488 24.7668 59.1072 24.7668 58.6065 24.7668C58.1085 24.7668 57.5698 24.7668 56.9902 24.7668ZM56.9902 24.7668C56.9902 24.1651 56.9902 23.6175 56.9902 23.1241C56.9902 22.6307 56.9902 22.0831 56.9902 21.4813C57.5698 21.4813 58.1085 21.4813 58.6065 21.4813C59.1072 21.4813 59.6488 21.4813 60.2312 21.4813C60.2312 22.0831 60.2312 22.6307 60.2312 23.1241C60.2312 23.6175 60.2312 24.1651 60.2312 24.7668C59.6488 24.7668 59.1072 24.7668 58.6065 24.7668C58.1085 24.7668 57.5698 24.7668 56.9902 24.7668ZM65.0925 24.7668C65.0925 24.1651 65.0925 23.6175 65.0925 23.1241C65.0925 22.6307 65.0925 22.0831 65.0925 21.4813C65.6721 21.4813 66.2108 21.4813 66.7088 21.4813C67.2095 21.4813 67.7511 21.4813 68.3335 21.4813C68.3335 22.0831 68.3335 22.6307 68.3335 23.1241C68.3335 23.6175 68.3335 24.1651 68.3335 24.7668C67.7511 24.7668 67.2095 24.7668 66.7088 24.7668C66.2108 24.7668 65.6721 24.7668 65.0925 24.7668ZM65.0925 24.7668C65.0925 24.1651 65.0925 23.6175 65.0925 23.1241C65.0925 22.6307 65.0925 22.0831 65.0925 21.4813C65.6721 21.4813 66.2108 21.4813 66.7088 21.4813C67.2095 21.4813 67.7511 21.4813 68.3335 21.4813C68.3335 22.0831 68.3335 22.6307 68.3335 23.1241C68.3335 23.6175 68.3335 24.1651 68.3335 24.7668C67.7511 24.7668 67.2095 24.7668 66.7088 24.7668C66.2108 24.7668 65.6721 24.7668 65.0925 24.7668ZM65.0925 24.7668C65.0925 24.1651 65.0925 23.6175 65.0925 23.1241C65.0925 22.6307 65.0925 22.0831 65.0925 21.4813C65.6721 21.4813 66.2108 21.4813 66.7088 21.4813C67.2095 21.4813 67.7511 21.4813 68.3335 21.4813C68.3335 22.0831 68.3335 22.6307 68.3335 23.1241C68.3335 23.6175 68.3335 24.1651 68.3335 24.7668C67.7511 24.7668 67.2095 24.7668 66.7088 24.7668C66.2108 24.7668 65.6721 24.7668 65.0925 24.7668ZM65.0925 24.7668C65.0925 24.1651 65.0925 23.6175 65.0925 23.1241C65.0925 22.6307 65.0925 22.0831 65.0925 21.4813C65.6721 21.4813 66.2108 21.4813 66.7088 21.4813C67.2095 21.4813 67.7511 21.4813 68.3335 21.4813C68.3335 22.0831 68.3335 22.6307 68.3335 23.1241C68.3335 23.6175 68.3335 24.1651 68.3335 24.7668C67.7511 24.7668 67.2095 24.7668 66.7088 24.7668C66.2108 24.7668 65.6721 24.7668 65.0925 24.7668ZM65.0925 24.7668C65.0925 24.1651 65.0925 23.6175 65.0925 23.1241C65.0925 22.6307 65.0925 22.0831 65.0925 21.4813C65.6721 21.4813 66.2108 21.4813 66.7088 21.4813C67.2095 21.4813 67.7511 21.4813 68.3335 21.4813C68.3335 22.0831 68.3335 22.6307 68.3335 23.1241C68.3335 23.6175 68.3335 24.1651 68.3335 24.7668C67.7511 24.7668 67.2095 24.7668 66.7088 24.7668C66.2108 24.7668 65.6721 24.7668 65.0925 24.7668ZM65.0925 24.7668C65.0925 24.1651 65.0925 23.6175 65.0925 23.1241C65.0925 22.6307 65.0925 22.0831 65.0925 21.4813C65.6721 21.4813 66.2108 21.4813 66.7088 21.4813C67.2095 21.4813 67.7511 21.4813 68.3335 21.4813C68.3335 22.0831 68.3335 22.6307 68.3335 23.1241C68.3335 23.6175 68.3335 24.1651 68.3335 24.7668C67.7511 24.7668 67.2095 24.7668 66.7088 24.7668C66.2108 24.7668 65.6721 24.7668 65.0925 24.7668ZM65.0925 24.7668C65.0925 24.1651 65.0925 23.6175 65.0925 23.1241C65.0925 22.6307 65.0925 22.0831 65.0925 21.4813C65.6721 21.4813 66.2108 21.4813 66.7088 21.4813C67.2095 21.4813 67.7511 21.4813 68.3335 21.4813C68.3335 22.0831 68.3335 22.6307 68.3335 23.1241C68.3335 23.6175 68.3335 24.1651 68.3335 24.7668C67.7511 24.7668 67.2095 24.7668 66.7088 24.7668C66.2108 24.7668 65.6721 24.7668 65.0925 24.7668ZM65.0925 24.7668C65.0925 24.1651 65.0925 23.6175 65.0925 23.1241C65.0925 22.6307 65.0925 22.0831 65.0925 21.4813C65.6721 21.4813 66.2108 21.4813 66.7088 21.4813C67.2095 21.4813 67.7511 21.4813 68.3335 21.4813C68.3335 22.0831 68.3335 22.6307 68.3335 23.1241C68.3335 23.6175 68.3335 24.1651 68.3335 24.7668C67.7511 24.7668 67.2095 24.7668 66.7088 24.7668C66.2108 24.7668 65.6721 24.7668 65.0925 24.7668ZM65.0925 24.7668C65.0925 24.1651 65.0925 23.6175 65.0925 23.1241C65.0925 22.6307 65.0925 22.0831 65.0925 21.4813C65.6721 21.4813 66.2108 21.4813 66.7088 21.4813C67.2095 21.4813 67.7511 21.4813 68.3335 21.4813C68.3335 22.0831 68.3335 22.6307 68.3335 23.1241C68.3335 23.6175 68.3335 24.1651 68.3335 24.7668C67.7511 24.7668 67.2095 24.7668 66.7088 24.7668C66.2108 24.7668 65.6721 24.7668 65.0925 24.7668ZM56.9902 22.7134C56.9902 22.1116 56.9902 21.564 56.9902 21.0706C56.9902 20.5772 56.9902 20.0296 56.9902 19.4278C57.5698 19.4278 58.1085 19.4278 58.6065 19.4278C59.1072 19.4278 59.6488 19.4278 60.2312 19.4278C60.2312 20.0296 60.2312 20.5772 60.2312 21.0706C60.2312 21.564 60.2312 22.1116 60.2312 22.7134C59.6488 22.7134 59.1072 22.7134 58.6065 22.7134C58.1085 22.7134 57.5698 22.7134 56.9902 22.7134ZM56.9902 22.7134C56.9902 22.1116 56.9902 21.564 56.9902 21.0706C56.9902 20.5772 56.9902 20.0296 56.9902 19.4278C57.5698 19.4278 58.1085 19.4278 58.6065 19.4278C59.1072 19.4278 59.6488 19.4278 60.2312 19.4278C60.2312 20.0296 60.2312 20.5772 60.2312 21.0706C60.2312 21.564 60.2312 22.1116 60.2312 22.7134C59.6488 22.7134 59.1072 22.7134 58.6065 22.7134C58.1085 22.7134 57.5698 22.7134 56.9902 22.7134ZM56.9902 22.7134C56.9902 22.1116 56.9902 21.564 56.9902 21.0706C56.9902 20.5772 56.9902 20.0296 56.9902 19.4278C57.5698 19.4278 58.1085 19.4278 58.6065 19.4278C59.1072 19.4278 59.6488 19.4278 60.2312 19.4278C60.2312 20.0296 60.2312 20.5772 60.2312 21.0706C60.2312 21.564 60.2312 22.1116 60.2312 22.7134C59.6488 22.7134 59.1072 22.7134 58.6065 22.7134C58.1085 22.7134 57.5698 22.7134 56.9902 22.7134ZM56.9902 22.7134C56.9902 22.1116 56.9902 21.564 56.9902 21.0706C56.9902 20.5772 56.9902 20.0296 56.9902 19.4278C57.5698 19.4278 58.1085 19.4278 58.6065 19.4278C59.1072 19.4278 59.6488 19.4278 60.2312 19.4278C60.2312 20.0296 60.2312 20.5772 60.2312 21.0706C60.2312 21.564 60.2312 22.1116 60.2312 22.7134C59.6488 22.7134 59.1072 22.7134 58.6065 22.7134C58.1085 22.7134 57.5698 22.7134 56.9902 22.7134ZM56.9902 22.7134C56.9902 22.1116 56.9902 21.564 56.9902 21.0706C56.9902 20.5772 56.9902 20.0296 56.9902 19.4278C57.5698 19.4278 58.1085 19.4278 58.6065 19.4278C59.1072 19.4278 59.6488 19.4278 60.2312 19.4278C60.2312 20.0296 60.2312 20.5772 60.2312 21.0706C60.2312 21.564 60.2312 22.1116 60.2312 22.7134C59.6488 22.7134 59.1072 22.7134 58.6065 22.7134C58.1085 22.7134 57.5698 22.7134 56.9902 22.7134ZM56.9902 22.7134C56.9902 22.1116 56.9902 21.564 56.9902 21.0706C56.9902 20.5772 56.9902 20.0296 56.9902 19.4278C57.5698 19.4278 58.1085 19.4278 58.6065 19.4278C59.1072 19.4278 59.6488 19.4278 60.2312 19.4278C60.2312 20.0296 60.2312 20.5772 60.2312 21.0706C60.2312 21.564 60.2312 22.1116 60.2312 22.7134C59.6488 22.7134 59.1072 22.7134 58.6065 22.7134C58.1085 22.7134 57.5698 22.7134 56.9902 22.7134ZM56.9902 22.7134C56.9902 22.1116 56.9902 21.564 56.9902 21.0706C56.9902 20.5772 56.9902 20.0296 56.9902 19.4278C57.5698 19.4278 58.1085 19.4278 58.6065 19.4278C59.1072 19.4278 59.6488 19.4278 60.2312 19.4278C60.2312 20.0296 60.2312 20.5772 60.2312 21.0706C60.2312 21.564 60.2312 22.1116 60.2312 22.7134C59.6488 22.7134 59.1072 22.7134 58.6065 22.7134C58.1085 22.7134 57.5698 22.7134 56.9902 22.7134ZM56.9902 22.7134C56.9902 22.1116 56.9902 21.564 56.9902 21.0706C56.9902 20.5772 56.9902 20.0296 56.9902 19.4278C57.5698 19.4278 58.1085 19.4278 58.6065 19.4278C59.1072 19.4278 59.6488 19.4278 60.2312 19.4278C60.2312 20.0296 60.2312 20.5772 60.2312 21.0706C60.2312 21.564 60.2312 22.1116 60.2312 22.7134C59.6488 22.7134 59.1072 22.7134 58.6065 22.7134C58.1085 22.7134 57.5698 22.7134 56.9902 22.7134ZM56.9902 22.7134C56.9902 22.1116 56.9902 21.564 56.9902 21.0706C56.9902 20.5772 56.9902 20.0296 56.9902 19.4278C57.5698 19.4278 58.1085 19.4278 58.6065 19.4278C59.1072 19.4278 59.6488 19.4278 60.2312 19.4278C60.2312 20.0296 60.2312 20.5772 60.2312 21.0706C60.2312 21.564 60.2312 22.1116 60.2312 22.7134C59.6488 22.7134 59.1072 22.7134 58.6065 22.7134C58.1085 22.7134 57.5698 22.7134 56.9902 22.7134ZM65.0925 22.7134C65.0925 22.1116 65.0925 21.564 65.0925 21.0706C65.0925 20.5772 65.0925 20.0296 65.0925 19.4278C65.6721 19.4278 66.2108 19.4278 66.7088 19.4278C67.2095 19.4278 67.7511 19.4278 68.3335 19.4278C68.3335 20.0296 68.3335 20.5772 68.3335 21.0706C68.3335 21.564 68.3335 22.1116 68.3335 22.7134C67.7511 22.7134 67.2095 22.7134 66.7088 22.7134C66.2108 22.7134 65.6721 22.7134 65.0925 22.7134ZM65.0925 22.7134C65.0925 22.1116 65.0925 21.564 65.0925 21.0706C65.0925 20.5772 65.0925 20.0296 65.0925 19.4278C65.6721 19.4278 66.2108 19.4278 66.7088 19.4278C67.2095 19.4278 67.7511 19.4278 68.3335 19.4278C68.3335 20.0296 68.3335 20.5772 68.3335 21.0706C68.3335 21.564 68.3335 22.1116 68.3335 22.7134C67.7511 22.7134 67.2095 22.7134 66.7088 22.7134C66.2108 22.7134 65.6721 22.7134 65.0925 22.7134ZM65.0925 22.7134C65.0925 22.1116 65.0925 21.564 65.0925 21.0706C65.0925 20.5772 65.0925 20.0296 65.0925 19.4278C65.6721 19.4278 66.2108 19.4278 66.7088 19.4278C67.2095 19.4278 67.7511 19.4278 68.3335 19.4278C68.3335 20.0296 68.3335 20.5772 68.3335 21.0706C68.3335 21.564 68.3335 22.1116 68.3335 22.7134C67.7511 22.7134 67.2095 22.7134 66.7088 22.7134C66.2108 22.7134 65.6721 22.7134 65.0925 22.7134ZM65.0925 22.7134C65.0925 22.1116 65.0925 21.564 65.0925 21.0706C65.0925 20.5772 65.0925 20.0296 65.0925 19.4278C65.6721 19.4278 66.2108 19.4278 66.7088 19.4278C67.2095 19.4278 67.7511 19.4278 68.3335 19.4278C68.3335 20.0296 68.3335 20.5772 68.3335 21.0706C68.3335 21.564 68.3335 22.1116 68.3335 22.7134C67.7511 22.7134 67.2095 22.7134 66.7088 22.7134C66.2108 22.7134 65.6721 22.7134 65.0925 22.7134ZM65.0925 22.7134C65.0925 22.1116 65.0925 21.564 65.0925 21.0706C65.0925 20.5772 65.0925 20.0296 65.0925 19.4278C65.6721 19.4278 66.2108 19.4278 66.7088 19.4278C67.2095 19.4278 67.7511 19.4278 68.3335 19.4278C68.3335 20.0296 68.3335 20.5772 68.3335 21.0706C68.3335 21.564 68.3335 22.1116 68.3335 22.7134C67.7511 22.7134 67.2095 22.7134 66.7088 22.7134C66.2108 22.7134 65.6721 22.7134 65.0925 22.7134ZM65.0925 22.7134C65.0925 22.1116 65.0925 21.564 65.0925 21.0706C65.0925 20.5772 65.0925 20.0296 65.0925 19.4278C65.6721 19.4278 66.2108 19.4278 66.7088 19.4278C67.2095 19.4278 67.7511 19.4278 68.3335 19.4278C68.3335 20.0296 68.3335 20.5772 68.3335 21.0706C68.3335 21.564 68.3335 22.1116 68.3335 22.7134C67.7511 22.7134 67.2095 22.7134 66.7088 22.7134C66.2108 22.7134 65.6721 22.7134 65.0925 22.7134ZM65.0925 22.7134C65.0925 22.1116 65.0925 21.564 65.0925 21.0706C65.0925 20.5772 65.0925 20.0296 65.0925 19.4278C65.6721 19.4278 66.2108 19.4278 66.7088 19.4278C67.2095 19.4278 67.7511 19.4278 68.3335 19.4278C68.3335 20.0296 68.3335 20.5772 68.3335 21.0706C68.3335 21.564 68.3335 22.1116 68.3335 22.7134C67.7511 22.7134 67.2095 22.7134 66.7088 22.7134C66.2108 22.7134 65.6721 22.7134 65.0925 22.7134ZM65.0925 22.7134C65.0925 22.1116 65.0925 21.564 65.0925 21.0706C65.0925 20.5772 65.0925 20.0296 65.0925 19.4278C65.6721 19.4278 66.2108 19.4278 66.7088 19.4278C67.2095 19.4278 67.7511 19.4278 68.3335 19.4278C68.3335 20.0296 68.3335 20.5772 68.3335 21.0706C68.3335 21.564 68.3335 22.1116 68.3335 22.7134C67.7511 22.7134 67.2095 22.7134 66.7088 22.7134C66.2108 22.7134 65.6721 22.7134 65.0925 22.7134ZM65.0925 22.7134C65.0925 22.1116 65.0925 21.564 65.0925 21.0706C65.0925 20.5772 65.0925 20.0296 65.0925 19.4278C65.6721 19.4278 66.2108 19.4278 66.7088 19.4278C67.2095 19.4278 67.7511 19.4278 68.3335 19.4278C68.3335 20.0296 68.3335 20.5772 68.3335 21.0706C68.3335 21.564 68.3335 22.1116 68.3335 22.7134C67.7511 22.7134 67.2095 22.7134 66.7088 22.7134C66.2108 22.7134 65.6721 22.7134 65.0925 22.7134ZM56.9902 20.6599C56.9902 20.0581 56.9902 19.5105 56.9902 19.0171C56.9902 18.5237 56.9902 17.9761 56.9902 17.3743C57.5698 17.3743 58.1085 17.3743 58.6065 17.3743C59.1072 17.3743 59.6488 17.3743 60.2312 17.3743C60.2312 17.9761 60.2312 18.5237 60.2312 19.0171C60.2312 19.5105 60.2312 20.0581 60.2312 20.6599C59.6488 20.6599 59.1072 20.6599 58.6065 20.6599C58.1085 20.6599 57.5698 20.6599 56.9902 20.6599ZM56.9902 20.6599C56.9902 20.0581 56.9902 19.5105 56.9902 19.0171C56.9902 18.5237 56.9902 17.9761 56.9902 17.3743C57.5698 17.3743 58.1085 17.3743 58.6065 17.3743C59.1072 17.3743 59.6488 17.3743 60.2312 17.3743C60.2312 17.9761 60.2312 18.5237 60.2312 19.0171C60.2312 19.5105 60.2312 20.0581 60.2312 20.6599C59.6488 20.6599 59.1072 20.6599 58.6065 20.6599C58.1085 20.6599 57.5698 20.6599 56.9902 20.6599ZM56.9902 20.6599C56.9902 20.0581 56.9902 19.5105 56.9902 19.0171C56.9902 18.5237 56.9902 17.9761 56.9902 17.3743C57.5698 17.3743 58.1085 17.3743 58.6065 17.3743C59.1072 17.3743 59.6488 17.3743 60.2312 17.3743C60.2312 17.9761 60.2312 18.5237 60.2312 19.0171C60.2312 19.5105 60.2312 20.0581 60.2312 20.6599C59.6488 20.6599 59.1072 20.6599 58.6065 20.6599C58.1085 20.6599 57.5698 20.6599 56.9902 20.6599ZM56.9902 20.6599C56.9902 20.0581 56.9902 19.5105 56.9902 19.0171C56.9902 18.5237 56.9902 17.9761 56.9902 17.3743C57.5698 17.3743 58.1085 17.3743 58.6065 17.3743C59.1072 17.3743 59.6488 17.3743 60.2312 17.3743C60.2312 17.9761 60.2312 18.5237 60.2312 19.0171C60.2312 19.5105 60.2312 20.0581 60.2312 20.6599C59.6488 20.6599 59.1072 20.6599 58.6065 20.6599C58.1085 20.6599 57.5698 20.6599 56.9902 20.6599ZM56.9902 20.6599C56.9902 20.0581 56.9902 19.5105 56.9902 19.0171C56.9902 18.5237 56.9902 17.9761 56.9902 17.3743C57.5698 17.3743 58.1085 17.3743 58.6065 17.3743C59.1072 17.3743 59.6488 17.3743 60.2312 17.3743C60.2312 17.9761 60.2312 18.5237 60.2312 19.0171C60.2312 19.5105 60.2312 20.0581 60.2312 20.6599C59.6488 20.6599 59.1072 20.6599 58.6065 20.6599C58.1085 20.6599 57.5698 20.6599 56.9902 20.6599ZM56.9902 20.6599C56.9902 20.0581 56.9902 19.5105 56.9902 19.0171C56.9902 18.5237 56.9902 17.9761 56.9902 17.3743C57.5698 17.3743 58.1085 17.3743 58.6065 17.3743C59.1072 17.3743 59.6488 17.3743 60.2312 17.3743C60.2312 17.9761 60.2312 18.5237 60.2312 19.0171C60.2312 19.5105 60.2312 20.0581 60.2312 20.6599C59.6488 20.6599 59.1072 20.6599 58.6065 20.6599C58.1085 20.6599 57.5698 20.6599 56.9902 20.6599ZM56.9902 20.6599C56.9902 20.0581 56.9902 19.5105 56.9902 19.0171C56.9902 18.5237 56.9902 17.9761 56.9902 17.3743C57.5698 17.3743 58.1085 17.3743 58.6065 17.3743C59.1072 17.3743 59.6488 17.3743 60.2312 17.3743C60.2312 17.9761 60.2312 18.5237 60.2312 19.0171C60.2312 19.5105 60.2312 20.0581 60.2312 20.6599C59.6488 20.6599 59.1072 20.6599 58.6065 20.6599C58.1085 20.6599 57.5698 20.6599 56.9902 20.6599ZM56.9902 20.6599C56.9902 20.0581 56.9902 19.5105 56.9902 19.0171C56.9902 18.5237 56.9902 17.9761 56.9902 17.3743C57.5698 17.3743 58.1085 17.3743 58.6065 17.3743C59.1072 17.3743 59.6488 17.3743 60.2312 17.3743C60.2312 17.9761 60.2312 18.5237 60.2312 19.0171C60.2312 19.5105 60.2312 20.0581 60.2312 20.6599C59.6488 20.6599 59.1072 20.6599 58.6065 20.6599C58.1085 20.6599 57.5698 20.6599 56.9902 20.6599ZM56.9902 20.6599C56.9902 20.0581 56.9902 19.5105 56.9902 19.0171C56.9902 18.5237 56.9902 17.9761 56.9902 17.3743C57.5698 17.3743 58.1085 17.3743 58.6065 17.3743C59.1072 17.3743 59.6488 17.3743 60.2312 17.3743C60.2312 17.9761 60.2312 18.5237 60.2312 19.0171C60.2312 19.5105 60.2312 20.0581 60.2312 20.6599C59.6488 20.6599 59.1072 20.6599 58.6065 20.6599C58.1085 20.6599 57.5698 20.6599 56.9902 20.6599ZM59.0158 20.6599C59.0158 20.0581 59.0158 19.5105 59.0158 19.0171C59.0158 18.5237 59.0158 17.9761 59.0158 17.3743C59.5954 17.3743 60.1341 17.3743 60.632 17.3743C61.1328 17.3743 61.6744 17.3743 62.2567 17.3743C62.2567 17.9761 62.2567 18.5237 62.2567 19.0171C62.2567 19.5105 62.2567 20.0581 62.2567 20.6599C61.6744 20.6599 61.1328 20.6599 60.632 20.6599C60.1341 20.6599 59.5954 20.6599 59.0158 20.6599ZM59.0158 20.6599C59.0158 20.0581 59.0158 19.5105 59.0158 19.0171C59.0158 18.5237 59.0158 17.9761 59.0158 17.3743C59.5954 17.3743 60.1341 17.3743 60.632 17.3743C61.1328 17.3743 61.6744 17.3743 62.2567 17.3743C62.2567 17.9761 62.2567 18.5237 62.2567 19.0171C62.2567 19.5105 62.2567 20.0581 62.2567 20.6599C61.6744 20.6599 61.1328 20.6599 60.632 20.6599C60.1341 20.6599 59.5954 20.6599 59.0158 20.6599ZM59.0158 20.6599C59.0158 20.0581 59.0158 19.5105 59.0158 19.0171C59.0158 18.5237 59.0158 17.9761 59.0158 17.3743C59.5954 17.3743 60.1341 17.3743 60.632 17.3743C61.1328 17.3743 61.6744 17.3743 62.2567 17.3743C62.2567 17.9761 62.2567 18.5237 62.2567 19.0171C62.2567 19.5105 62.2567 20.0581 62.2567 20.6599C61.6744 20.6599 61.1328 20.6599 60.632 20.6599C60.1341 20.6599 59.5954 20.6599 59.0158 20.6599ZM59.0158 20.6599C59.0158 20.0581 59.0158 19.5105 59.0158 19.0171C59.0158 18.5237 59.0158 17.9761 59.0158 17.3743C59.5954 17.3743 60.1341 17.3743 60.632 17.3743C61.1328 17.3743 61.6744 17.3743 62.2567 17.3743C62.2567 17.9761 62.2567 18.5237 62.2567 19.0171C62.2567 19.5105 62.2567 20.0581 62.2567 20.6599C61.6744 20.6599 61.1328 20.6599 60.632 20.6599C60.1341 20.6599 59.5954 20.6599 59.0158 20.6599ZM59.0158 20.6599C59.0158 20.0581 59.0158 19.5105 59.0158 19.0171C59.0158 18.5237 59.0158 17.9761 59.0158 17.3743C59.5954 17.3743 60.1341 17.3743 60.632 17.3743C61.1328 17.3743 61.6744 17.3743 62.2567 17.3743C62.2567 17.9761 62.2567 18.5237 62.2567 19.0171C62.2567 19.5105 62.2567 20.0581 62.2567 20.6599C61.6744 20.6599 61.1328 20.6599 60.632 20.6599C60.1341 20.6599 59.5954 20.6599 59.0158 20.6599ZM59.0158 20.6599C59.0158 20.0581 59.0158 19.5105 59.0158 19.0171C59.0158 18.5237 59.0158 17.9761 59.0158 17.3743C59.5954 17.3743 60.1341 17.3743 60.632 17.3743C61.1328 17.3743 61.6744 17.3743 62.2567 17.3743C62.2567 17.9761 62.2567 18.5237 62.2567 19.0171C62.2567 19.5105 62.2567 20.0581 62.2567 20.6599C61.6744 20.6599 61.1328 20.6599 60.632 20.6599C60.1341 20.6599 59.5954 20.6599 59.0158 20.6599ZM59.0158 20.6599C59.0158 20.0581 59.0158 19.5105 59.0158 19.0171C59.0158 18.5237 59.0158 17.9761 59.0158 17.3743C59.5954 17.3743 60.1341 17.3743 60.632 17.3743C61.1328 17.3743 61.6744 17.3743 62.2567 17.3743C62.2567 17.9761 62.2567 18.5237 62.2567 19.0171C62.2567 19.5105 62.2567 20.0581 62.2567 20.6599C61.6744 20.6599 61.1328 20.6599 60.632 20.6599C60.1341 20.6599 59.5954 20.6599 59.0158 20.6599ZM59.0158 20.6599C59.0158 20.0581 59.0158 19.5105 59.0158 19.0171C59.0158 18.5237 59.0158 17.9761 59.0158 17.3743C59.5954 17.3743 60.1341 17.3743 60.632 17.3743C61.1328 17.3743 61.6744 17.3743 62.2567 17.3743C62.2567 17.9761 62.2567 18.5237 62.2567 19.0171C62.2567 19.5105 62.2567 20.0581 62.2567 20.6599C61.6744 20.6599 61.1328 20.6599 60.632 20.6599C60.1341 20.6599 59.5954 20.6599 59.0158 20.6599ZM59.0158 20.6599C59.0158 20.0581 59.0158 19.5105 59.0158 19.0171C59.0158 18.5237 59.0158 17.9761 59.0158 17.3743C59.5954 17.3743 60.1341 17.3743 60.632 17.3743C61.1328 17.3743 61.6744 17.3743 62.2567 17.3743C62.2567 17.9761 62.2567 18.5237 62.2567 19.0171C62.2567 19.5105 62.2567 20.0581 62.2567 20.6599C61.6744 20.6599 61.1328 20.6599 60.632 20.6599C60.1341 20.6599 59.5954 20.6599 59.0158 20.6599ZM61.0414 20.6599C61.0414 20.0581 61.0414 19.5105 61.0414 19.0171C61.0414 18.5237 61.0414 17.9761 61.0414 17.3743C61.6209 17.3743 62.1597 17.3743 62.6576 17.3743C63.1584 17.3743 63.7 17.3743 64.2823 17.3743C64.2823 17.9761 64.2823 18.5237 64.2823 19.0171C64.2823 19.5105 64.2823 20.0581 64.2823 20.6599C63.7 20.6599 63.1584 20.6599 62.6576 20.6599C62.1597 20.6599 61.6209 20.6599 61.0414 20.6599ZM61.0414 20.6599C61.0414 20.0581 61.0414 19.5105 61.0414 19.0171C61.0414 18.5237 61.0414 17.9761 61.0414 17.3743C61.6209 17.3743 62.1597 17.3743 62.6576 17.3743C63.1584 17.3743 63.7 17.3743 64.2823 17.3743C64.2823 17.9761 64.2823 18.5237 64.2823 19.0171C64.2823 19.5105 64.2823 20.0581 64.2823 20.6599C63.7 20.6599 63.1584 20.6599 62.6576 20.6599C62.1597 20.6599 61.6209 20.6599 61.0414 20.6599ZM61.0414 20.6599C61.0414 20.0581 61.0414 19.5105 61.0414 19.0171C61.0414 18.5237 61.0414 17.9761 61.0414 17.3743C61.6209 17.3743 62.1597 17.3743 62.6576 17.3743C63.1584 17.3743 63.7 17.3743 64.2823 17.3743C64.2823 17.9761 64.2823 18.5237 64.2823 19.0171C64.2823 19.5105 64.2823 20.0581 64.2823 20.6599C63.7 20.6599 63.1584 20.6599 62.6576 20.6599C62.1597 20.6599 61.6209 20.6599 61.0414 20.6599ZM61.0414 20.6599C61.0414 20.0581 61.0414 19.5105 61.0414 19.0171C61.0414 18.5237 61.0414 17.9761 61.0414 17.3743C61.6209 17.3743 62.1597 17.3743 62.6576 17.3743C63.1584 17.3743 63.7 17.3743 64.2823 17.3743C64.2823 17.9761 64.2823 18.5237 64.2823 19.0171C64.2823 19.5105 64.2823 20.0581 64.2823 20.6599C63.7 20.6599 63.1584 20.6599 62.6576 20.6599C62.1597 20.6599 61.6209 20.6599 61.0414 20.6599ZM61.0414 20.6599C61.0414 20.0581 61.0414 19.5105 61.0414 19.0171C61.0414 18.5237 61.0414 17.9761 61.0414 17.3743C61.6209 17.3743 62.1597 17.3743 62.6576 17.3743C63.1584 17.3743 63.7 17.3743 64.2823 17.3743C64.2823 17.9761 64.2823 18.5237 64.2823 19.0171C64.2823 19.5105 64.2823 20.0581 64.2823 20.6599C63.7 20.6599 63.1584 20.6599 62.6576 20.6599C62.1597 20.6599 61.6209 20.6599 61.0414 20.6599ZM61.0414 20.6599C61.0414 20.0581 61.0414 19.5105 61.0414 19.0171C61.0414 18.5237 61.0414 17.9761 61.0414 17.3743C61.6209 17.3743 62.1597 17.3743 62.6576 17.3743C63.1584 17.3743 63.7 17.3743 64.2823 17.3743C64.2823 17.9761 64.2823 18.5237 64.2823 19.0171C64.2823 19.5105 64.2823 20.0581 64.2823 20.6599C63.7 20.6599 63.1584 20.6599 62.6576 20.6599C62.1597 20.6599 61.6209 20.6599 61.0414 20.6599ZM61.0414 20.6599C61.0414 20.0581 61.0414 19.5105 61.0414 19.0171C61.0414 18.5237 61.0414 17.9761 61.0414 17.3743C61.6209 17.3743 62.1597 17.3743 62.6576 17.3743C63.1584 17.3743 63.7 17.3743 64.2823 17.3743C64.2823 17.9761 64.2823 18.5237 64.2823 19.0171C64.2823 19.5105 64.2823 20.0581 64.2823 20.6599C63.7 20.6599 63.1584 20.6599 62.6576 20.6599C62.1597 20.6599 61.6209 20.6599 61.0414 20.6599ZM61.0414 20.6599C61.0414 20.0581 61.0414 19.5105 61.0414 19.0171C61.0414 18.5237 61.0414 17.9761 61.0414 17.3743C61.6209 17.3743 62.1597 17.3743 62.6576 17.3743C63.1584 17.3743 63.7 17.3743 64.2823 17.3743C64.2823 17.9761 64.2823 18.5237 64.2823 19.0171C64.2823 19.5105 64.2823 20.0581 64.2823 20.6599C63.7 20.6599 63.1584 20.6599 62.6576 20.6599C62.1597 20.6599 61.6209 20.6599 61.0414 20.6599ZM61.0414 20.6599C61.0414 20.0581 61.0414 19.5105 61.0414 19.0171C61.0414 18.5237 61.0414 17.9761 61.0414 17.3743C61.6209 17.3743 62.1597 17.3743 62.6576 17.3743C63.1584 17.3743 63.7 17.3743 64.2823 17.3743C64.2823 17.9761 64.2823 18.5237 64.2823 19.0171C64.2823 19.5105 64.2823 20.0581 64.2823 20.6599C63.7 20.6599 63.1584 20.6599 62.6576 20.6599C62.1597 20.6599 61.6209 20.6599 61.0414 20.6599ZM63.067 20.6599C63.067 20.0581 63.067 19.5105 63.067 19.0171C63.067 18.5237 63.067 17.9761 63.067 17.3743C63.6465 17.3743 64.1852 17.3743 64.6832 17.3743C65.184 17.3743 65.7255 17.3743 66.3079 17.3743C66.3079 17.9761 66.3079 18.5237 66.3079 19.0171C66.3079 19.5105 66.3079 20.0581 66.3079 20.6599C65.7255 20.6599 65.184 20.6599 64.6832 20.6599C64.1852 20.6599 63.6465 20.6599 63.067 20.6599ZM63.067 20.6599C63.067 20.0581 63.067 19.5105 63.067 19.0171C63.067 18.5237 63.067 17.9761 63.067 17.3743C63.6465 17.3743 64.1852 17.3743 64.6832 17.3743C65.184 17.3743 65.7255 17.3743 66.3079 17.3743C66.3079 17.9761 66.3079 18.5237 66.3079 19.0171C66.3079 19.5105 66.3079 20.0581 66.3079 20.6599C65.7255 20.6599 65.184 20.6599 64.6832 20.6599C64.1852 20.6599 63.6465 20.6599 63.067 20.6599ZM63.067 20.6599C63.067 20.0581 63.067 19.5105 63.067 19.0171C63.067 18.5237 63.067 17.9761 63.067 17.3743C63.6465 17.3743 64.1852 17.3743 64.6832 17.3743C65.184 17.3743 65.7255 17.3743 66.3079 17.3743C66.3079 17.9761 66.3079 18.5237 66.3079 19.0171C66.3079 19.5105 66.3079 20.0581 66.3079 20.6599C65.7255 20.6599 65.184 20.6599 64.6832 20.6599C64.1852 20.6599 63.6465 20.6599 63.067 20.6599ZM63.067 20.6599C63.067 20.0581 63.067 19.5105 63.067 19.0171C63.067 18.5237 63.067 17.9761 63.067 17.3743C63.6465 17.3743 64.1852 17.3743 64.6832 17.3743C65.184 17.3743 65.7255 17.3743 66.3079 17.3743C66.3079 17.9761 66.3079 18.5237 66.3079 19.0171C66.3079 19.5105 66.3079 20.0581 66.3079 20.6599C65.7255 20.6599 65.184 20.6599 64.6832 20.6599C64.1852 20.6599 63.6465 20.6599 63.067 20.6599ZM63.067 20.6599C63.067 20.0581 63.067 19.5105 63.067 19.0171C63.067 18.5237 63.067 17.9761 63.067 17.3743C63.6465 17.3743 64.1852 17.3743 64.6832 17.3743C65.184 17.3743 65.7255 17.3743 66.3079 17.3743C66.3079 17.9761 66.3079 18.5237 66.3079 19.0171C66.3079 19.5105 66.3079 20.0581 66.3079 20.6599C65.7255 20.6599 65.184 20.6599 64.6832 20.6599C64.1852 20.6599 63.6465 20.6599 63.067 20.6599ZM63.067 20.6599C63.067 20.0581 63.067 19.5105 63.067 19.0171C63.067 18.5237 63.067 17.9761 63.067 17.3743C63.6465 17.3743 64.1852 17.3743 64.6832 17.3743C65.184 17.3743 65.7255 17.3743 66.3079 17.3743C66.3079 17.9761 66.3079 18.5237 66.3079 19.0171C66.3079 19.5105 66.3079 20.0581 66.3079 20.6599C65.7255 20.6599 65.184 20.6599 64.6832 20.6599C64.1852 20.6599 63.6465 20.6599 63.067 20.6599ZM63.067 20.6599C63.067 20.0581 63.067 19.5105 63.067 19.0171C63.067 18.5237 63.067 17.9761 63.067 17.3743C63.6465 17.3743 64.1852 17.3743 64.6832 17.3743C65.184 17.3743 65.7255 17.3743 66.3079 17.3743C66.3079 17.9761 66.3079 18.5237 66.3079 19.0171C66.3079 19.5105 66.3079 20.0581 66.3079 20.6599C65.7255 20.6599 65.184 20.6599 64.6832 20.6599C64.1852 20.6599 63.6465 20.6599 63.067 20.6599ZM63.067 20.6599C63.067 20.0581 63.067 19.5105 63.067 19.0171C63.067 18.5237 63.067 17.9761 63.067 17.3743C63.6465 17.3743 64.1852 17.3743 64.6832 17.3743C65.184 17.3743 65.7255 17.3743 66.3079 17.3743C66.3079 17.9761 66.3079 18.5237 66.3079 19.0171C66.3079 19.5105 66.3079 20.0581 66.3079 20.6599C65.7255 20.6599 65.184 20.6599 64.6832 20.6599C64.1852 20.6599 63.6465 20.6599 63.067 20.6599ZM63.067 20.6599C63.067 20.0581 63.067 19.5105 63.067 19.0171C63.067 18.5237 63.067 17.9761 63.067 17.3743C63.6465 17.3743 64.1852 17.3743 64.6832 17.3743C65.184 17.3743 65.7255 17.3743 66.3079 17.3743C66.3079 17.9761 66.3079 18.5237 66.3079 19.0171C66.3079 19.5105 66.3079 20.0581 66.3079 20.6599C65.7255 20.6599 65.184 20.6599 64.6832 20.6599C64.1852 20.6599 63.6465 20.6599 63.067 20.6599ZM65.0925 20.6599C65.0925 20.0581 65.0925 19.5105 65.0925 19.0171C65.0925 18.5237 65.0925 17.9761 65.0925 17.3743C65.6721 17.3743 66.2108 17.3743 66.7088 17.3743C67.2095 17.3743 67.7511 17.3743 68.3335 17.3743C68.3335 17.9761 68.3335 18.5237 68.3335 19.0171C68.3335 19.5105 68.3335 20.0581 68.3335 20.6599C67.7511 20.6599 67.2095 20.6599 66.7088 20.6599C66.2108 20.6599 65.6721 20.6599 65.0925 20.6599ZM65.0925 20.6599C65.0925 20.0581 65.0925 19.5105 65.0925 19.0171C65.0925 18.5237 65.0925 17.9761 65.0925 17.3743C65.6721 17.3743 66.2108 17.3743 66.7088 17.3743C67.2095 17.3743 67.7511 17.3743 68.3335 17.3743C68.3335 17.9761 68.3335 18.5237 68.3335 19.0171C68.3335 19.5105 68.3335 20.0581 68.3335 20.6599C67.7511 20.6599 67.2095 20.6599 66.7088 20.6599C66.2108 20.6599 65.6721 20.6599 65.0925 20.6599ZM65.0925 20.6599C65.0925 20.0581 65.0925 19.5105 65.0925 19.0171C65.0925 18.5237 65.0925 17.9761 65.0925 17.3743C65.6721 17.3743 66.2108 17.3743 66.7088 17.3743C67.2095 17.3743 67.7511 17.3743 68.3335 17.3743C68.3335 17.9761 68.3335 18.5237 68.3335 19.0171C68.3335 19.5105 68.3335 20.0581 68.3335 20.6599C67.7511 20.6599 67.2095 20.6599 66.7088 20.6599C66.2108 20.6599 65.6721 20.6599 65.0925 20.6599ZM65.0925 20.6599C65.0925 20.0581 65.0925 19.5105 65.0925 19.0171C65.0925 18.5237 65.0925 17.9761 65.0925 17.3743C65.6721 17.3743 66.2108 17.3743 66.7088 17.3743C67.2095 17.3743 67.7511 17.3743 68.3335 17.3743C68.3335 17.9761 68.3335 18.5237 68.3335 19.0171C68.3335 19.5105 68.3335 20.0581 68.3335 20.6599C67.7511 20.6599 67.2095 20.6599 66.7088 20.6599C66.2108 20.6599 65.6721 20.6599 65.0925 20.6599ZM65.0925 20.6599C65.0925 20.0581 65.0925 19.5105 65.0925 19.0171C65.0925 18.5237 65.0925 17.9761 65.0925 17.3743C65.6721 17.3743 66.2108 17.3743 66.7088 17.3743C67.2095 17.3743 67.7511 17.3743 68.3335 17.3743C68.3335 17.9761 68.3335 18.5237 68.3335 19.0171C68.3335 19.5105 68.3335 20.0581 68.3335 20.6599C67.7511 20.6599 67.2095 20.6599 66.7088 20.6599C66.2108 20.6599 65.6721 20.6599 65.0925 20.6599ZM65.0925 20.6599C65.0925 20.0581 65.0925 19.5105 65.0925 19.0171C65.0925 18.5237 65.0925 17.9761 65.0925 17.3743C65.6721 17.3743 66.2108 17.3743 66.7088 17.3743C67.2095 17.3743 67.7511 17.3743 68.3335 17.3743C68.3335 17.9761 68.3335 18.5237 68.3335 19.0171C68.3335 19.5105 68.3335 20.0581 68.3335 20.6599C67.7511 20.6599 67.2095 20.6599 66.7088 20.6599C66.2108 20.6599 65.6721 20.6599 65.0925 20.6599ZM65.0925 20.6599C65.0925 20.0581 65.0925 19.5105 65.0925 19.0171C65.0925 18.5237 65.0925 17.9761 65.0925 17.3743C65.6721 17.3743 66.2108 17.3743 66.7088 17.3743C67.2095 17.3743 67.7511 17.3743 68.3335 17.3743C68.3335 17.9761 68.3335 18.5237 68.3335 19.0171C68.3335 19.5105 68.3335 20.0581 68.3335 20.6599C67.7511 20.6599 67.2095 20.6599 66.7088 20.6599C66.2108 20.6599 65.6721 20.6599 65.0925 20.6599ZM65.0925 20.6599C65.0925 20.0581 65.0925 19.5105 65.0925 19.0171C65.0925 18.5237 65.0925 17.9761 65.0925 17.3743C65.6721 17.3743 66.2108 17.3743 66.7088 17.3743C67.2095 17.3743 67.7511 17.3743 68.3335 17.3743C68.3335 17.9761 68.3335 18.5237 68.3335 19.0171C68.3335 19.5105 68.3335 20.0581 68.3335 20.6599C67.7511 20.6599 67.2095 20.6599 66.7088 20.6599C66.2108 20.6599 65.6721 20.6599 65.0925 20.6599ZM65.0925 20.6599C65.0925 20.0581 65.0925 19.5105 65.0925 19.0171C65.0925 18.5237 65.0925 17.9761 65.0925 17.3743C65.6721 17.3743 66.2108 17.3743 66.7088 17.3743C67.2095 17.3743 67.7511 17.3743 68.3335 17.3743C68.3335 17.9761 68.3335 18.5237 68.3335 19.0171C68.3335 19.5105 68.3335 20.0581 68.3335 20.6599C67.7511 20.6599 67.2095 20.6599 66.7088 20.6599C66.2108 20.6599 65.6721 20.6599 65.0925 20.6599ZM56.9902 18.6064C56.9902 18.0046 56.9902 17.457 56.9902 16.9636C56.9902 16.4702 56.9902 15.9226 56.9902 15.3209C57.5698 15.3209 58.1085 15.3209 58.6065 15.3209C59.1072 15.3209 59.6488 15.3209 60.2312 15.3209C60.2312 15.9226 60.2312 16.4702 60.2312 16.9636C60.2312 17.457 60.2312 18.0046 60.2312 18.6064C59.6488 18.6064 59.1072 18.6064 58.6065 18.6064C58.1085 18.6064 57.5698 18.6064 56.9902 18.6064ZM56.9902 18.6064C56.9902 18.0046 56.9902 17.457 56.9902 16.9636C56.9902 16.4702 56.9902 15.9226 56.9902 15.3209C57.5698 15.3209 58.1085 15.3209 58.6065 15.3209C59.1072 15.3209 59.6488 15.3209 60.2312 15.3209C60.2312 15.9226 60.2312 16.4702 60.2312 16.9636C60.2312 17.457 60.2312 18.0046 60.2312 18.6064C59.6488 18.6064 59.1072 18.6064 58.6065 18.6064C58.1085 18.6064 57.5698 18.6064 56.9902 18.6064ZM56.9902 18.6064C56.9902 18.0046 56.9902 17.457 56.9902 16.9636C56.9902 16.4702 56.9902 15.9226 56.9902 15.3209C57.5698 15.3209 58.1085 15.3209 58.6065 15.3209C59.1072 15.3209 59.6488 15.3209 60.2312 15.3209C60.2312 15.9226 60.2312 16.4702 60.2312 16.9636C60.2312 17.457 60.2312 18.0046 60.2312 18.6064C59.6488 18.6064 59.1072 18.6064 58.6065 18.6064C58.1085 18.6064 57.5698 18.6064 56.9902 18.6064ZM56.9902 18.6064C56.9902 18.0046 56.9902 17.457 56.9902 16.9636C56.9902 16.4702 56.9902 15.9226 56.9902 15.3209C57.5698 15.3209 58.1085 15.3209 58.6065 15.3209C59.1072 15.3209 59.6488 15.3209 60.2312 15.3209C60.2312 15.9226 60.2312 16.4702 60.2312 16.9636C60.2312 17.457 60.2312 18.0046 60.2312 18.6064C59.6488 18.6064 59.1072 18.6064 58.6065 18.6064C58.1085 18.6064 57.5698 18.6064 56.9902 18.6064ZM56.9902 18.6064C56.9902 18.0046 56.9902 17.457 56.9902 16.9636C56.9902 16.4702 56.9902 15.9226 56.9902 15.3209C57.5698 15.3209 58.1085 15.3209 58.6065 15.3209C59.1072 15.3209 59.6488 15.3209 60.2312 15.3209C60.2312 15.9226 60.2312 16.4702 60.2312 16.9636C60.2312 17.457 60.2312 18.0046 60.2312 18.6064C59.6488 18.6064 59.1072 18.6064 58.6065 18.6064C58.1085 18.6064 57.5698 18.6064 56.9902 18.6064ZM56.9902 18.6064C56.9902 18.0046 56.9902 17.457 56.9902 16.9636C56.9902 16.4702 56.9902 15.9226 56.9902 15.3209C57.5698 15.3209 58.1085 15.3209 58.6065 15.3209C59.1072 15.3209 59.6488 15.3209 60.2312 15.3209C60.2312 15.9226 60.2312 16.4702 60.2312 16.9636C60.2312 17.457 60.2312 18.0046 60.2312 18.6064C59.6488 18.6064 59.1072 18.6064 58.6065 18.6064C58.1085 18.6064 57.5698 18.6064 56.9902 18.6064ZM56.9902 18.6064C56.9902 18.0046 56.9902 17.457 56.9902 16.9636C56.9902 16.4702 56.9902 15.9226 56.9902 15.3209C57.5698 15.3209 58.1085 15.3209 58.6065 15.3209C59.1072 15.3209 59.6488 15.3209 60.2312 15.3209C60.2312 15.9226 60.2312 16.4702 60.2312 16.9636C60.2312 17.457 60.2312 18.0046 60.2312 18.6064C59.6488 18.6064 59.1072 18.6064 58.6065 18.6064C58.1085 18.6064 57.5698 18.6064 56.9902 18.6064ZM56.9902 18.6064C56.9902 18.0046 56.9902 17.457 56.9902 16.9636C56.9902 16.4702 56.9902 15.9226 56.9902 15.3209C57.5698 15.3209 58.1085 15.3209 58.6065 15.3209C59.1072 15.3209 59.6488 15.3209 60.2312 15.3209C60.2312 15.9226 60.2312 16.4702 60.2312 16.9636C60.2312 17.457 60.2312 18.0046 60.2312 18.6064C59.6488 18.6064 59.1072 18.6064 58.6065 18.6064C58.1085 18.6064 57.5698 18.6064 56.9902 18.6064ZM56.9902 18.6064C56.9902 18.0046 56.9902 17.457 56.9902 16.9636C56.9902 16.4702 56.9902 15.9226 56.9902 15.3209C57.5698 15.3209 58.1085 15.3209 58.6065 15.3209C59.1072 15.3209 59.6488 15.3209 60.2312 15.3209C60.2312 15.9226 60.2312 16.4702 60.2312 16.9636C60.2312 17.457 60.2312 18.0046 60.2312 18.6064C59.6488 18.6064 59.1072 18.6064 58.6065 18.6064C58.1085 18.6064 57.5698 18.6064 56.9902 18.6064ZM65.0925 18.6064C65.0925 18.0046 65.0925 17.457 65.0925 16.9636C65.0925 16.4702 65.0925 15.9226 65.0925 15.3209C65.6721 15.3209 66.2108 15.3209 66.7088 15.3209C67.2095 15.3209 67.7511 15.3209 68.3335 15.3209C68.3335 15.9226 68.3335 16.4702 68.3335 16.9636C68.3335 17.457 68.3335 18.0046 68.3335 18.6064C67.7511 18.6064 67.2095 18.6064 66.7088 18.6064C66.2108 18.6064 65.6721 18.6064 65.0925 18.6064ZM65.0925 18.6064C65.0925 18.0046 65.0925 17.457 65.0925 16.9636C65.0925 16.4702 65.0925 15.9226 65.0925 15.3209C65.6721 15.3209 66.2108 15.3209 66.7088 15.3209C67.2095 15.3209 67.7511 15.3209 68.3335 15.3209C68.3335 15.9226 68.3335 16.4702 68.3335 16.9636C68.3335 17.457 68.3335 18.0046 68.3335 18.6064C67.7511 18.6064 67.2095 18.6064 66.7088 18.6064C66.2108 18.6064 65.6721 18.6064 65.0925 18.6064ZM65.0925 18.6064C65.0925 18.0046 65.0925 17.457 65.0925 16.9636C65.0925 16.4702 65.0925 15.9226 65.0925 15.3209C65.6721 15.3209 66.2108 15.3209 66.7088 15.3209C67.2095 15.3209 67.7511 15.3209 68.3335 15.3209C68.3335 15.9226 68.3335 16.4702 68.3335 16.9636C68.3335 17.457 68.3335 18.0046 68.3335 18.6064C67.7511 18.6064 67.2095 18.6064 66.7088 18.6064C66.2108 18.6064 65.6721 18.6064 65.0925 18.6064ZM65.0925 18.6064C65.0925 18.0046 65.0925 17.457 65.0925 16.9636C65.0925 16.4702 65.0925 15.9226 65.0925 15.3209C65.6721 15.3209 66.2108 15.3209 66.7088 15.3209C67.2095 15.3209 67.7511 15.3209 68.3335 15.3209C68.3335 15.9226 68.3335 16.4702 68.3335 16.9636C68.3335 17.457 68.3335 18.0046 68.3335 18.6064C67.7511 18.6064 67.2095 18.6064 66.7088 18.6064C66.2108 18.6064 65.6721 18.6064 65.0925 18.6064ZM65.0925 18.6064C65.0925 18.0046 65.0925 17.457 65.0925 16.9636C65.0925 16.4702 65.0925 15.9226 65.0925 15.3209C65.6721 15.3209 66.2108 15.3209 66.7088 15.3209C67.2095 15.3209 67.7511 15.3209 68.3335 15.3209C68.3335 15.9226 68.3335 16.4702 68.3335 16.9636C68.3335 17.457 68.3335 18.0046 68.3335 18.6064C67.7511 18.6064 67.2095 18.6064 66.7088 18.6064C66.2108 18.6064 65.6721 18.6064 65.0925 18.6064ZM65.0925 18.6064C65.0925 18.0046 65.0925 17.457 65.0925 16.9636C65.0925 16.4702 65.0925 15.9226 65.0925 15.3209C65.6721 15.3209 66.2108 15.3209 66.7088 15.3209C67.2095 15.3209 67.7511 15.3209 68.3335 15.3209C68.3335 15.9226 68.3335 16.4702 68.3335 16.9636C68.3335 17.457 68.3335 18.0046 68.3335 18.6064C67.7511 18.6064 67.2095 18.6064 66.7088 18.6064C66.2108 18.6064 65.6721 18.6064 65.0925 18.6064ZM65.0925 18.6064C65.0925 18.0046 65.0925 17.457 65.0925 16.9636C65.0925 16.4702 65.0925 15.9226 65.0925 15.3209C65.6721 15.3209 66.2108 15.3209 66.7088 15.3209C67.2095 15.3209 67.7511 15.3209 68.3335 15.3209C68.3335 15.9226 68.3335 16.4702 68.3335 16.9636C68.3335 17.457 68.3335 18.0046 68.3335 18.6064C67.7511 18.6064 67.2095 18.6064 66.7088 18.6064C66.2108 18.6064 65.6721 18.6064 65.0925 18.6064ZM65.0925 18.6064C65.0925 18.0046 65.0925 17.457 65.0925 16.9636C65.0925 16.4702 65.0925 15.9226 65.0925 15.3209C65.6721 15.3209 66.2108 15.3209 66.7088 15.3209C67.2095 15.3209 67.7511 15.3209 68.3335 15.3209C68.3335 15.9226 68.3335 16.4702 68.3335 16.9636C68.3335 17.457 68.3335 18.0046 68.3335 18.6064C67.7511 18.6064 67.2095 18.6064 66.7088 18.6064C66.2108 18.6064 65.6721 18.6064 65.0925 18.6064ZM65.0925 18.6064C65.0925 18.0046 65.0925 17.457 65.0925 16.9636C65.0925 16.4702 65.0925 15.9226 65.0925 15.3209C65.6721 15.3209 66.2108 15.3209 66.7088 15.3209C67.2095 15.3209 67.7511 15.3209 68.3335 15.3209C68.3335 15.9226 68.3335 16.4702 68.3335 16.9636C68.3335 17.457 68.3335 18.0046 68.3335 18.6064C67.7511 18.6064 67.2095 18.6064 66.7088 18.6064C66.2108 18.6064 65.6721 18.6064 65.0925 18.6064ZM56.9902 16.5529C56.9902 15.9512 56.9902 15.4036 56.9902 14.9102C56.9902 14.4168 56.9902 13.8692 56.9902 13.2674C57.5698 13.2674 58.1085 13.2674 58.6065 13.2674C59.1072 13.2674 59.6488 13.2674 60.2312 13.2674C60.2312 13.8692 60.2312 14.4168 60.2312 14.9102C60.2312 15.4036 60.2312 15.9512 60.2312 16.5529C59.6488 16.5529 59.1072 16.5529 58.6065 16.5529C58.1085 16.5529 57.5698 16.5529 56.9902 16.5529ZM56.9902 16.5529C56.9902 15.9512 56.9902 15.4036 56.9902 14.9102C56.9902 14.4168 56.9902 13.8692 56.9902 13.2674C57.5698 13.2674 58.1085 13.2674 58.6065 13.2674C59.1072 13.2674 59.6488 13.2674 60.2312 13.2674C60.2312 13.8692 60.2312 14.4168 60.2312 14.9102C60.2312 15.4036 60.2312 15.9512 60.2312 16.5529C59.6488 16.5529 59.1072 16.5529 58.6065 16.5529C58.1085 16.5529 57.5698 16.5529 56.9902 16.5529ZM56.9902 16.5529C56.9902 15.9512 56.9902 15.4036 56.9902 14.9102C56.9902 14.4168 56.9902 13.8692 56.9902 13.2674C57.5698 13.2674 58.1085 13.2674 58.6065 13.2674C59.1072 13.2674 59.6488 13.2674 60.2312 13.2674C60.2312 13.8692 60.2312 14.4168 60.2312 14.9102C60.2312 15.4036 60.2312 15.9512 60.2312 16.5529C59.6488 16.5529 59.1072 16.5529 58.6065 16.5529C58.1085 16.5529 57.5698 16.5529 56.9902 16.5529ZM56.9902 16.5529C56.9902 15.9512 56.9902 15.4036 56.9902 14.9102C56.9902 14.4168 56.9902 13.8692 56.9902 13.2674C57.5698 13.2674 58.1085 13.2674 58.6065 13.2674C59.1072 13.2674 59.6488 13.2674 60.2312 13.2674C60.2312 13.8692 60.2312 14.4168 60.2312 14.9102C60.2312 15.4036 60.2312 15.9512 60.2312 16.5529C59.6488 16.5529 59.1072 16.5529 58.6065 16.5529C58.1085 16.5529 57.5698 16.5529 56.9902 16.5529ZM56.9902 16.5529C56.9902 15.9512 56.9902 15.4036 56.9902 14.9102C56.9902 14.4168 56.9902 13.8692 56.9902 13.2674C57.5698 13.2674 58.1085 13.2674 58.6065 13.2674C59.1072 13.2674 59.6488 13.2674 60.2312 13.2674C60.2312 13.8692 60.2312 14.4168 60.2312 14.9102C60.2312 15.4036 60.2312 15.9512 60.2312 16.5529C59.6488 16.5529 59.1072 16.5529 58.6065 16.5529C58.1085 16.5529 57.5698 16.5529 56.9902 16.5529ZM56.9902 16.5529C56.9902 15.9512 56.9902 15.4036 56.9902 14.9102C56.9902 14.4168 56.9902 13.8692 56.9902 13.2674C57.5698 13.2674 58.1085 13.2674 58.6065 13.2674C59.1072 13.2674 59.6488 13.2674 60.2312 13.2674C60.2312 13.8692 60.2312 14.4168 60.2312 14.9102C60.2312 15.4036 60.2312 15.9512 60.2312 16.5529C59.6488 16.5529 59.1072 16.5529 58.6065 16.5529C58.1085 16.5529 57.5698 16.5529 56.9902 16.5529ZM56.9902 16.5529C56.9902 15.9512 56.9902 15.4036 56.9902 14.9102C56.9902 14.4168 56.9902 13.8692 56.9902 13.2674C57.5698 13.2674 58.1085 13.2674 58.6065 13.2674C59.1072 13.2674 59.6488 13.2674 60.2312 13.2674C60.2312 13.8692 60.2312 14.4168 60.2312 14.9102C60.2312 15.4036 60.2312 15.9512 60.2312 16.5529C59.6488 16.5529 59.1072 16.5529 58.6065 16.5529C58.1085 16.5529 57.5698 16.5529 56.9902 16.5529ZM56.9902 16.5529C56.9902 15.9512 56.9902 15.4036 56.9902 14.9102C56.9902 14.4168 56.9902 13.8692 56.9902 13.2674C57.5698 13.2674 58.1085 13.2674 58.6065 13.2674C59.1072 13.2674 59.6488 13.2674 60.2312 13.2674C60.2312 13.8692 60.2312 14.4168 60.2312 14.9102C60.2312 15.4036 60.2312 15.9512 60.2312 16.5529C59.6488 16.5529 59.1072 16.5529 58.6065 16.5529C58.1085 16.5529 57.5698 16.5529 56.9902 16.5529ZM56.9902 16.5529C56.9902 15.9512 56.9902 15.4036 56.9902 14.9102C56.9902 14.4168 56.9902 13.8692 56.9902 13.2674C57.5698 13.2674 58.1085 13.2674 58.6065 13.2674C59.1072 13.2674 59.6488 13.2674 60.2312 13.2674C60.2312 13.8692 60.2312 14.4168 60.2312 14.9102C60.2312 15.4036 60.2312 15.9512 60.2312 16.5529C59.6488 16.5529 59.1072 16.5529 58.6065 16.5529C58.1085 16.5529 57.5698 16.5529 56.9902 16.5529ZM65.0925 16.5529C65.0925 15.9512 65.0925 15.4036 65.0925 14.9102C65.0925 14.4168 65.0925 13.8692 65.0925 13.2674C65.6721 13.2674 66.2108 13.2674 66.7088 13.2674C67.2095 13.2674 67.7511 13.2674 68.3335 13.2674C68.3335 13.8692 68.3335 14.4168 68.3335 14.9102C68.3335 15.4036 68.3335 15.9512 68.3335 16.5529C67.7511 16.5529 67.2095 16.5529 66.7088 16.5529C66.2108 16.5529 65.6721 16.5529 65.0925 16.5529ZM65.0925 16.5529C65.0925 15.9512 65.0925 15.4036 65.0925 14.9102C65.0925 14.4168 65.0925 13.8692 65.0925 13.2674C65.6721 13.2674 66.2108 13.2674 66.7088 13.2674C67.2095 13.2674 67.7511 13.2674 68.3335 13.2674C68.3335 13.8692 68.3335 14.4168 68.3335 14.9102C68.3335 15.4036 68.3335 15.9512 68.3335 16.5529C67.7511 16.5529 67.2095 16.5529 66.7088 16.5529C66.2108 16.5529 65.6721 16.5529 65.0925 16.5529ZM65.0925 16.5529C65.0925 15.9512 65.0925 15.4036 65.0925 14.9102C65.0925 14.4168 65.0925 13.8692 65.0925 13.2674C65.6721 13.2674 66.2108 13.2674 66.7088 13.2674C67.2095 13.2674 67.7511 13.2674 68.3335 13.2674C68.3335 13.8692 68.3335 14.4168 68.3335 14.9102C68.3335 15.4036 68.3335 15.9512 68.3335 16.5529C67.7511 16.5529 67.2095 16.5529 66.7088 16.5529C66.2108 16.5529 65.6721 16.5529 65.0925 16.5529ZM65.0925 16.5529C65.0925 15.9512 65.0925 15.4036 65.0925 14.9102C65.0925 14.4168 65.0925 13.8692 65.0925 13.2674C65.6721 13.2674 66.2108 13.2674 66.7088 13.2674C67.2095 13.2674 67.7511 13.2674 68.3335 13.2674C68.3335 13.8692 68.3335 14.4168 68.3335 14.9102C68.3335 15.4036 68.3335 15.9512 68.3335 16.5529C67.7511 16.5529 67.2095 16.5529 66.7088 16.5529C66.2108 16.5529 65.6721 16.5529 65.0925 16.5529ZM65.0925 16.5529C65.0925 15.9512 65.0925 15.4036 65.0925 14.9102C65.0925 14.4168 65.0925 13.8692 65.0925 13.2674C65.6721 13.2674 66.2108 13.2674 66.7088 13.2674C67.2095 13.2674 67.7511 13.2674 68.3335 13.2674C68.3335 13.8692 68.3335 14.4168 68.3335 14.9102C68.3335 15.4036 68.3335 15.9512 68.3335 16.5529C67.7511 16.5529 67.2095 16.5529 66.7088 16.5529C66.2108 16.5529 65.6721 16.5529 65.0925 16.5529ZM65.0925 16.5529C65.0925 15.9512 65.0925 15.4036 65.0925 14.9102C65.0925 14.4168 65.0925 13.8692 65.0925 13.2674C65.6721 13.2674 66.2108 13.2674 66.7088 13.2674C67.2095 13.2674 67.7511 13.2674 68.3335 13.2674C68.3335 13.8692 68.3335 14.4168 68.3335 14.9102C68.3335 15.4036 68.3335 15.9512 68.3335 16.5529C67.7511 16.5529 67.2095 16.5529 66.7088 16.5529C66.2108 16.5529 65.6721 16.5529 65.0925 16.5529ZM65.0925 16.5529C65.0925 15.9512 65.0925 15.4036 65.0925 14.9102C65.0925 14.4168 65.0925 13.8692 65.0925 13.2674C65.6721 13.2674 66.2108 13.2674 66.7088 13.2674C67.2095 13.2674 67.7511 13.2674 68.3335 13.2674C68.3335 13.8692 68.3335 14.4168 68.3335 14.9102C68.3335 15.4036 68.3335 15.9512 68.3335 16.5529C67.7511 16.5529 67.2095 16.5529 66.7088 16.5529C66.2108 16.5529 65.6721 16.5529 65.0925 16.5529ZM65.0925 16.5529C65.0925 15.9512 65.0925 15.4036 65.0925 14.9102C65.0925 14.4168 65.0925 13.8692 65.0925 13.2674C65.6721 13.2674 66.2108 13.2674 66.7088 13.2674C67.2095 13.2674 67.7511 13.2674 68.3335 13.2674C68.3335 13.8692 68.3335 14.4168 68.3335 14.9102C68.3335 15.4036 68.3335 15.9512 68.3335 16.5529C67.7511 16.5529 67.2095 16.5529 66.7088 16.5529C66.2108 16.5529 65.6721 16.5529 65.0925 16.5529ZM65.0925 16.5529C65.0925 15.9512 65.0925 15.4036 65.0925 14.9102C65.0925 14.4168 65.0925 13.8692 65.0925 13.2674C65.6721 13.2674 66.2108 13.2674 66.7088 13.2674C67.2095 13.2674 67.7511 13.2674 68.3335 13.2674C68.3335 13.8692 68.3335 14.4168 68.3335 14.9102C68.3335 15.4036 68.3335 15.9512 68.3335 16.5529C67.7511 16.5529 67.2095 16.5529 66.7088 16.5529C66.2108 16.5529 65.6721 16.5529 65.0925 16.5529ZM56.9902 14.4995C56.9902 13.8977 56.9902 13.3501 56.9902 12.8567C56.9902 12.3633 56.9902 11.8157 56.9902 11.2139C57.5698 11.2139 58.1085 11.2139 58.6065 11.2139C59.1072 11.2139 59.6488 11.2139 60.2312 11.2139C60.2312 11.8157 60.2312 12.3633 60.2312 12.8567C60.2312 13.3501 60.2312 13.8977 60.2312 14.4995C59.6488 14.4995 59.1072 14.4995 58.6065 14.4995C58.1085 14.4995 57.5698 14.4995 56.9902 14.4995ZM56.9902 14.4995C56.9902 13.8977 56.9902 13.3501 56.9902 12.8567C56.9902 12.3633 56.9902 11.8157 56.9902 11.2139C57.5698 11.2139 58.1085 11.2139 58.6065 11.2139C59.1072 11.2139 59.6488 11.2139 60.2312 11.2139C60.2312 11.8157 60.2312 12.3633 60.2312 12.8567C60.2312 13.3501 60.2312 13.8977 60.2312 14.4995C59.6488 14.4995 59.1072 14.4995 58.6065 14.4995C58.1085 14.4995 57.5698 14.4995 56.9902 14.4995ZM56.9902 14.4995C56.9902 13.8977 56.9902 13.3501 56.9902 12.8567C56.9902 12.3633 56.9902 11.8157 56.9902 11.2139C57.5698 11.2139 58.1085 11.2139 58.6065 11.2139C59.1072 11.2139 59.6488 11.2139 60.2312 11.2139C60.2312 11.8157 60.2312 12.3633 60.2312 12.8567C60.2312 13.3501 60.2312 13.8977 60.2312 14.4995C59.6488 14.4995 59.1072 14.4995 58.6065 14.4995C58.1085 14.4995 57.5698 14.4995 56.9902 14.4995ZM56.9902 14.4995C56.9902 13.8977 56.9902 13.3501 56.9902 12.8567C56.9902 12.3633 56.9902 11.8157 56.9902 11.2139C57.5698 11.2139 58.1085 11.2139 58.6065 11.2139C59.1072 11.2139 59.6488 11.2139 60.2312 11.2139C60.2312 11.8157 60.2312 12.3633 60.2312 12.8567C60.2312 13.3501 60.2312 13.8977 60.2312 14.4995C59.6488 14.4995 59.1072 14.4995 58.6065 14.4995C58.1085 14.4995 57.5698 14.4995 56.9902 14.4995ZM56.9902 14.4995C56.9902 13.8977 56.9902 13.3501 56.9902 12.8567C56.9902 12.3633 56.9902 11.8157 56.9902 11.2139C57.5698 11.2139 58.1085 11.2139 58.6065 11.2139C59.1072 11.2139 59.6488 11.2139 60.2312 11.2139C60.2312 11.8157 60.2312 12.3633 60.2312 12.8567C60.2312 13.3501 60.2312 13.8977 60.2312 14.4995C59.6488 14.4995 59.1072 14.4995 58.6065 14.4995C58.1085 14.4995 57.5698 14.4995 56.9902 14.4995ZM56.9902 14.4995C56.9902 13.8977 56.9902 13.3501 56.9902 12.8567C56.9902 12.3633 56.9902 11.8157 56.9902 11.2139C57.5698 11.2139 58.1085 11.2139 58.6065 11.2139C59.1072 11.2139 59.6488 11.2139 60.2312 11.2139C60.2312 11.8157 60.2312 12.3633 60.2312 12.8567C60.2312 13.3501 60.2312 13.8977 60.2312 14.4995C59.6488 14.4995 59.1072 14.4995 58.6065 14.4995C58.1085 14.4995 57.5698 14.4995 56.9902 14.4995ZM56.9902 14.4995C56.9902 13.8977 56.9902 13.3501 56.9902 12.8567C56.9902 12.3633 56.9902 11.8157 56.9902 11.2139C57.5698 11.2139 58.1085 11.2139 58.6065 11.2139C59.1072 11.2139 59.6488 11.2139 60.2312 11.2139C60.2312 11.8157 60.2312 12.3633 60.2312 12.8567C60.2312 13.3501 60.2312 13.8977 60.2312 14.4995C59.6488 14.4995 59.1072 14.4995 58.6065 14.4995C58.1085 14.4995 57.5698 14.4995 56.9902 14.4995ZM56.9902 14.4995C56.9902 13.8977 56.9902 13.3501 56.9902 12.8567C56.9902 12.3633 56.9902 11.8157 56.9902 11.2139C57.5698 11.2139 58.1085 11.2139 58.6065 11.2139C59.1072 11.2139 59.6488 11.2139 60.2312 11.2139C60.2312 11.8157 60.2312 12.3633 60.2312 12.8567C60.2312 13.3501 60.2312 13.8977 60.2312 14.4995C59.6488 14.4995 59.1072 14.4995 58.6065 14.4995C58.1085 14.4995 57.5698 14.4995 56.9902 14.4995ZM56.9902 14.4995C56.9902 13.8977 56.9902 13.3501 56.9902 12.8567C56.9902 12.3633 56.9902 11.8157 56.9902 11.2139C57.5698 11.2139 58.1085 11.2139 58.6065 11.2139C59.1072 11.2139 59.6488 11.2139 60.2312 11.2139C60.2312 11.8157 60.2312 12.3633 60.2312 12.8567C60.2312 13.3501 60.2312 13.8977 60.2312 14.4995C59.6488 14.4995 59.1072 14.4995 58.6065 14.4995C58.1085 14.4995 57.5698 14.4995 56.9902 14.4995ZM65.0925 14.4995C65.0925 13.8977 65.0925 13.3501 65.0925 12.8567C65.0925 12.3633 65.0925 11.8157 65.0925 11.2139C65.6721 11.2139 66.2108 11.2139 66.7088 11.2139C67.2095 11.2139 67.7511 11.2139 68.3335 11.2139C68.3335 11.8157 68.3335 12.3633 68.3335 12.8567C68.3335 13.3501 68.3335 13.8977 68.3335 14.4995C67.7511 14.4995 67.2095 14.4995 66.7088 14.4995C66.2108 14.4995 65.6721 14.4995 65.0925 14.4995ZM65.0925 14.4995C65.0925 13.8977 65.0925 13.3501 65.0925 12.8567C65.0925 12.3633 65.0925 11.8157 65.0925 11.2139C65.6721 11.2139 66.2108 11.2139 66.7088 11.2139C67.2095 11.2139 67.7511 11.2139 68.3335 11.2139C68.3335 11.8157 68.3335 12.3633 68.3335 12.8567C68.3335 13.3501 68.3335 13.8977 68.3335 14.4995C67.7511 14.4995 67.2095 14.4995 66.7088 14.4995C66.2108 14.4995 65.6721 14.4995 65.0925 14.4995ZM65.0925 14.4995C65.0925 13.8977 65.0925 13.3501 65.0925 12.8567C65.0925 12.3633 65.0925 11.8157 65.0925 11.2139C65.6721 11.2139 66.2108 11.2139 66.7088 11.2139C67.2095 11.2139 67.7511 11.2139 68.3335 11.2139C68.3335 11.8157 68.3335 12.3633 68.3335 12.8567C68.3335 13.3501 68.3335 13.8977 68.3335 14.4995C67.7511 14.4995 67.2095 14.4995 66.7088 14.4995C66.2108 14.4995 65.6721 14.4995 65.0925 14.4995ZM65.0925 14.4995C65.0925 13.8977 65.0925 13.3501 65.0925 12.8567C65.0925 12.3633 65.0925 11.8157 65.0925 11.2139C65.6721 11.2139 66.2108 11.2139 66.7088 11.2139C67.2095 11.2139 67.7511 11.2139 68.3335 11.2139C68.3335 11.8157 68.3335 12.3633 68.3335 12.8567C68.3335 13.3501 68.3335 13.8977 68.3335 14.4995C67.7511 14.4995 67.2095 14.4995 66.7088 14.4995C66.2108 14.4995 65.6721 14.4995 65.0925 14.4995ZM65.0925 14.4995C65.0925 13.8977 65.0925 13.3501 65.0925 12.8567C65.0925 12.3633 65.0925 11.8157 65.0925 11.2139C65.6721 11.2139 66.2108 11.2139 66.7088 11.2139C67.2095 11.2139 67.7511 11.2139 68.3335 11.2139C68.3335 11.8157 68.3335 12.3633 68.3335 12.8567C68.3335 13.3501 68.3335 13.8977 68.3335 14.4995C67.7511 14.4995 67.2095 14.4995 66.7088 14.4995C66.2108 14.4995 65.6721 14.4995 65.0925 14.4995ZM65.0925 14.4995C65.0925 13.8977 65.0925 13.3501 65.0925 12.8567C65.0925 12.3633 65.0925 11.8157 65.0925 11.2139C65.6721 11.2139 66.2108 11.2139 66.7088 11.2139C67.2095 11.2139 67.7511 11.2139 68.3335 11.2139C68.3335 11.8157 68.3335 12.3633 68.3335 12.8567C68.3335 13.3501 68.3335 13.8977 68.3335 14.4995C67.7511 14.4995 67.2095 14.4995 66.7088 14.4995C66.2108 14.4995 65.6721 14.4995 65.0925 14.4995ZM65.0925 14.4995C65.0925 13.8977 65.0925 13.3501 65.0925 12.8567C65.0925 12.3633 65.0925 11.8157 65.0925 11.2139C65.6721 11.2139 66.2108 11.2139 66.7088 11.2139C67.2095 11.2139 67.7511 11.2139 68.3335 11.2139C68.3335 11.8157 68.3335 12.3633 68.3335 12.8567C68.3335 13.3501 68.3335 13.8977 68.3335 14.4995C67.7511 14.4995 67.2095 14.4995 66.7088 14.4995C66.2108 14.4995 65.6721 14.4995 65.0925 14.4995ZM65.0925 14.4995C65.0925 13.8977 65.0925 13.3501 65.0925 12.8567C65.0925 12.3633 65.0925 11.8157 65.0925 11.2139C65.6721 11.2139 66.2108 11.2139 66.7088 11.2139C67.2095 11.2139 67.7511 11.2139 68.3335 11.2139C68.3335 11.8157 68.3335 12.3633 68.3335 12.8567C68.3335 13.3501 68.3335 13.8977 68.3335 14.4995C67.7511 14.4995 67.2095 14.4995 66.7088 14.4995C66.2108 14.4995 65.6721 14.4995 65.0925 14.4995ZM65.0925 14.4995C65.0925 13.8977 65.0925 13.3501 65.0925 12.8567C65.0925 12.3633 65.0925 11.8157 65.0925 11.2139C65.6721 11.2139 66.2108 11.2139 66.7088 11.2139C67.2095 11.2139 67.7511 11.2139 68.3335 11.2139C68.3335 11.8157 68.3335 12.3633 68.3335 12.8567C68.3335 13.3501 68.3335 13.8977 68.3335 14.4995C67.7511 14.4995 67.2095 14.4995 66.7088 14.4995C66.2108 14.4995 65.6721 14.4995 65.0925 14.4995ZM56.9902 12.446C56.9902 11.8442 56.9902 11.2966 56.9902 10.8032C56.9902 10.3098 56.9902 9.76221 56.9902 9.16043C57.5698 9.16043 58.1085 9.16043 58.6065 9.16043C59.1072 9.16043 59.6488 9.16043 60.2312 9.16043C60.2312 9.76221 60.2312 10.3098 60.2312 10.8032C60.2312 11.2966 60.2312 11.8442 60.2312 12.446C59.6488 12.446 59.1072 12.446 58.6065 12.446C58.1085 12.446 57.5698 12.446 56.9902 12.446ZM56.9902 12.446C56.9902 11.8442 56.9902 11.2966 56.9902 10.8032C56.9902 10.3098 56.9902 9.76221 56.9902 9.16043C57.5698 9.16043 58.1085 9.16043 58.6065 9.16043C59.1072 9.16043 59.6488 9.16043 60.2312 9.16043C60.2312 9.76221 60.2312 10.3098 60.2312 10.8032C60.2312 11.2966 60.2312 11.8442 60.2312 12.446C59.6488 12.446 59.1072 12.446 58.6065 12.446C58.1085 12.446 57.5698 12.446 56.9902 12.446ZM56.9902 12.446C56.9902 11.8442 56.9902 11.2966 56.9902 10.8032C56.9902 10.3098 56.9902 9.76221 56.9902 9.16043C57.5698 9.16043 58.1085 9.16043 58.6065 9.16043C59.1072 9.16043 59.6488 9.16043 60.2312 9.16043C60.2312 9.76221 60.2312 10.3098 60.2312 10.8032C60.2312 11.2966 60.2312 11.8442 60.2312 12.446C59.6488 12.446 59.1072 12.446 58.6065 12.446C58.1085 12.446 57.5698 12.446 56.9902 12.446ZM56.9902 12.446C56.9902 11.8442 56.9902 11.2966 56.9902 10.8032C56.9902 10.3098 56.9902 9.76221 56.9902 9.16043C57.5698 9.16043 58.1085 9.16043 58.6065 9.16043C59.1072 9.16043 59.6488 9.16043 60.2312 9.16043C60.2312 9.76221 60.2312 10.3098 60.2312 10.8032C60.2312 11.2966 60.2312 11.8442 60.2312 12.446C59.6488 12.446 59.1072 12.446 58.6065 12.446C58.1085 12.446 57.5698 12.446 56.9902 12.446ZM56.9902 12.446C56.9902 11.8442 56.9902 11.2966 56.9902 10.8032C56.9902 10.3098 56.9902 9.76221 56.9902 9.16043C57.5698 9.16043 58.1085 9.16043 58.6065 9.16043C59.1072 9.16043 59.6488 9.16043 60.2312 9.16043C60.2312 9.76221 60.2312 10.3098 60.2312 10.8032C60.2312 11.2966 60.2312 11.8442 60.2312 12.446C59.6488 12.446 59.1072 12.446 58.6065 12.446C58.1085 12.446 57.5698 12.446 56.9902 12.446ZM56.9902 12.446C56.9902 11.8442 56.9902 11.2966 56.9902 10.8032C56.9902 10.3098 56.9902 9.76221 56.9902 9.16043C57.5698 9.16043 58.1085 9.16043 58.6065 9.16043C59.1072 9.16043 59.6488 9.16043 60.2312 9.16043C60.2312 9.76221 60.2312 10.3098 60.2312 10.8032C60.2312 11.2966 60.2312 11.8442 60.2312 12.446C59.6488 12.446 59.1072 12.446 58.6065 12.446C58.1085 12.446 57.5698 12.446 56.9902 12.446ZM56.9902 12.446C56.9902 11.8442 56.9902 11.2966 56.9902 10.8032C56.9902 10.3098 56.9902 9.76221 56.9902 9.16043C57.5698 9.16043 58.1085 9.16043 58.6065 9.16043C59.1072 9.16043 59.6488 9.16043 60.2312 9.16043C60.2312 9.76221 60.2312 10.3098 60.2312 10.8032C60.2312 11.2966 60.2312 11.8442 60.2312 12.446C59.6488 12.446 59.1072 12.446 58.6065 12.446C58.1085 12.446 57.5698 12.446 56.9902 12.446ZM56.9902 12.446C56.9902 11.8442 56.9902 11.2966 56.9902 10.8032C56.9902 10.3098 56.9902 9.76221 56.9902 9.16043C57.5698 9.16043 58.1085 9.16043 58.6065 9.16043C59.1072 9.16043 59.6488 9.16043 60.2312 9.16043C60.2312 9.76221 60.2312 10.3098 60.2312 10.8032C60.2312 11.2966 60.2312 11.8442 60.2312 12.446C59.6488 12.446 59.1072 12.446 58.6065 12.446C58.1085 12.446 57.5698 12.446 56.9902 12.446ZM56.9902 12.446C56.9902 11.8442 56.9902 11.2966 56.9902 10.8032C56.9902 10.3098 56.9902 9.76221 56.9902 9.16043C57.5698 9.16043 58.1085 9.16043 58.6065 9.16043C59.1072 9.16043 59.6488 9.16043 60.2312 9.16043C60.2312 9.76221 60.2312 10.3098 60.2312 10.8032C60.2312 11.2966 60.2312 11.8442 60.2312 12.446C59.6488 12.446 59.1072 12.446 58.6065 12.446C58.1085 12.446 57.5698 12.446 56.9902 12.446ZM65.0925 12.446C65.0925 11.8442 65.0925 11.2966 65.0925 10.8032C65.0925 10.3098 65.0925 9.76221 65.0925 9.16043C65.6721 9.16043 66.2108 9.16043 66.7088 9.16043C67.2095 9.16043 67.7511 9.16043 68.3335 9.16043C68.3335 9.76221 68.3335 10.3098 68.3335 10.8032C68.3335 11.2966 68.3335 11.8442 68.3335 12.446C67.7511 12.446 67.2095 12.446 66.7088 12.446C66.2108 12.446 65.6721 12.446 65.0925 12.446ZM65.0925 12.446C65.0925 11.8442 65.0925 11.2966 65.0925 10.8032C65.0925 10.3098 65.0925 9.76221 65.0925 9.16043C65.6721 9.16043 66.2108 9.16043 66.7088 9.16043C67.2095 9.16043 67.7511 9.16043 68.3335 9.16043C68.3335 9.76221 68.3335 10.3098 68.3335 10.8032C68.3335 11.2966 68.3335 11.8442 68.3335 12.446C67.7511 12.446 67.2095 12.446 66.7088 12.446C66.2108 12.446 65.6721 12.446 65.0925 12.446ZM65.0925 12.446C65.0925 11.8442 65.0925 11.2966 65.0925 10.8032C65.0925 10.3098 65.0925 9.76221 65.0925 9.16043C65.6721 9.16043 66.2108 9.16043 66.7088 9.16043C67.2095 9.16043 67.7511 9.16043 68.3335 9.16043C68.3335 9.76221 68.3335 10.3098 68.3335 10.8032C68.3335 11.2966 68.3335 11.8442 68.3335 12.446C67.7511 12.446 67.2095 12.446 66.7088 12.446C66.2108 12.446 65.6721 12.446 65.0925 12.446ZM65.0925 12.446C65.0925 11.8442 65.0925 11.2966 65.0925 10.8032C65.0925 10.3098 65.0925 9.76221 65.0925 9.16043C65.6721 9.16043 66.2108 9.16043 66.7088 9.16043C67.2095 9.16043 67.7511 9.16043 68.3335 9.16043C68.3335 9.76221 68.3335 10.3098 68.3335 10.8032C68.3335 11.2966 68.3335 11.8442 68.3335 12.446C67.7511 12.446 67.2095 12.446 66.7088 12.446C66.2108 12.446 65.6721 12.446 65.0925 12.446ZM65.0925 12.446C65.0925 11.8442 65.0925 11.2966 65.0925 10.8032C65.0925 10.3098 65.0925 9.76221 65.0925 9.16043C65.6721 9.16043 66.2108 9.16043 66.7088 9.16043C67.2095 9.16043 67.7511 9.16043 68.3335 9.16043C68.3335 9.76221 68.3335 10.3098 68.3335 10.8032C68.3335 11.2966 68.3335 11.8442 68.3335 12.446C67.7511 12.446 67.2095 12.446 66.7088 12.446C66.2108 12.446 65.6721 12.446 65.0925 12.446ZM65.0925 12.446C65.0925 11.8442 65.0925 11.2966 65.0925 10.8032C65.0925 10.3098 65.0925 9.76221 65.0925 9.16043C65.6721 9.16043 66.2108 9.16043 66.7088 9.16043C67.2095 9.16043 67.7511 9.16043 68.3335 9.16043C68.3335 9.76221 68.3335 10.3098 68.3335 10.8032C68.3335 11.2966 68.3335 11.8442 68.3335 12.446C67.7511 12.446 67.2095 12.446 66.7088 12.446C66.2108 12.446 65.6721 12.446 65.0925 12.446ZM65.0925 12.446C65.0925 11.8442 65.0925 11.2966 65.0925 10.8032C65.0925 10.3098 65.0925 9.76221 65.0925 9.16043C65.6721 9.16043 66.2108 9.16043 66.7088 9.16043C67.2095 9.16043 67.7511 9.16043 68.3335 9.16043C68.3335 9.76221 68.3335 10.3098 68.3335 10.8032C68.3335 11.2966 68.3335 11.8442 68.3335 12.446C67.7511 12.446 67.2095 12.446 66.7088 12.446C66.2108 12.446 65.6721 12.446 65.0925 12.446ZM65.0925 12.446C65.0925 11.8442 65.0925 11.2966 65.0925 10.8032C65.0925 10.3098 65.0925 9.76221 65.0925 9.16043C65.6721 9.16043 66.2108 9.16043 66.7088 9.16043C67.2095 9.16043 67.7511 9.16043 68.3335 9.16043C68.3335 9.76221 68.3335 10.3098 68.3335 10.8032C68.3335 11.2966 68.3335 11.8442 68.3335 12.446C67.7511 12.446 67.2095 12.446 66.7088 12.446C66.2108 12.446 65.6721 12.446 65.0925 12.446ZM65.0925 12.446C65.0925 11.8442 65.0925 11.2966 65.0925 10.8032C65.0925 10.3098 65.0925 9.76221 65.0925 9.16043C65.6721 9.16043 66.2108 9.16043 66.7088 9.16043C67.2095 9.16043 67.7511 9.16043 68.3335 9.16043C68.3335 9.76221 68.3335 10.3098 68.3335 10.8032C68.3335 11.2966 68.3335 11.8442 68.3335 12.446C67.7511 12.446 67.2095 12.446 66.7088 12.446C66.2108 12.446 65.6721 12.446 65.0925 12.446ZM58.003 10.3925C58.003 9.79073 58.003 9.24314 58.003 8.74973C58.003 8.25633 58.003 7.70873 58.003 7.10695C58.5826 7.10695 59.1213 7.10695 59.6193 7.10695C60.12 7.10695 60.6616 7.10695 61.2439 7.10695C61.2439 7.70873 61.2439 8.25633 61.2439 8.74973C61.2439 9.24314 61.2439 9.79073 61.2439 10.3925C60.6616 10.3925 60.12 10.3925 59.6193 10.3925C59.1213 10.3925 58.5826 10.3925 58.003 10.3925ZM58.003 10.3925C58.003 9.79073 58.003 9.24314 58.003 8.74973C58.003 8.25633 58.003 7.70873 58.003 7.10695C58.5826 7.10695 59.1213 7.10695 59.6193 7.10695C60.12 7.10695 60.6616 7.10695 61.2439 7.10695C61.2439 7.70873 61.2439 8.25633 61.2439 8.74973C61.2439 9.24314 61.2439 9.79073 61.2439 10.3925C60.6616 10.3925 60.12 10.3925 59.6193 10.3925C59.1213 10.3925 58.5826 10.3925 58.003 10.3925ZM58.003 10.3925C58.003 9.79073 58.003 9.24314 58.003 8.74973C58.003 8.25633 58.003 7.70873 58.003 7.10695C58.5826 7.10695 59.1213 7.10695 59.6193 7.10695C60.12 7.10695 60.6616 7.10695 61.2439 7.10695C61.2439 7.70873 61.2439 8.25633 61.2439 8.74973C61.2439 9.24314 61.2439 9.79073 61.2439 10.3925C60.6616 10.3925 60.12 10.3925 59.6193 10.3925C59.1213 10.3925 58.5826 10.3925 58.003 10.3925ZM58.003 10.3925C58.003 9.79073 58.003 9.24314 58.003 8.74973C58.003 8.25633 58.003 7.70873 58.003 7.10695C58.5826 7.10695 59.1213 7.10695 59.6193 7.10695C60.12 7.10695 60.6616 7.10695 61.2439 7.10695C61.2439 7.70873 61.2439 8.25633 61.2439 8.74973C61.2439 9.24314 61.2439 9.79073 61.2439 10.3925C60.6616 10.3925 60.12 10.3925 59.6193 10.3925C59.1213 10.3925 58.5826 10.3925 58.003 10.3925ZM58.003 10.3925C58.003 9.79073 58.003 9.24314 58.003 8.74973C58.003 8.25633 58.003 7.70873 58.003 7.10695C58.5826 7.10695 59.1213 7.10695 59.6193 7.10695C60.12 7.10695 60.6616 7.10695 61.2439 7.10695C61.2439 7.70873 61.2439 8.25633 61.2439 8.74973C61.2439 9.24314 61.2439 9.79073 61.2439 10.3925C60.6616 10.3925 60.12 10.3925 59.6193 10.3925C59.1213 10.3925 58.5826 10.3925 58.003 10.3925ZM58.003 10.3925C58.003 9.79073 58.003 9.24314 58.003 8.74973C58.003 8.25633 58.003 7.70873 58.003 7.10695C58.5826 7.10695 59.1213 7.10695 59.6193 7.10695C60.12 7.10695 60.6616 7.10695 61.2439 7.10695C61.2439 7.70873 61.2439 8.25633 61.2439 8.74973C61.2439 9.24314 61.2439 9.79073 61.2439 10.3925C60.6616 10.3925 60.12 10.3925 59.6193 10.3925C59.1213 10.3925 58.5826 10.3925 58.003 10.3925ZM58.003 10.3925C58.003 9.79073 58.003 9.24314 58.003 8.74973C58.003 8.25633 58.003 7.70873 58.003 7.10695C58.5826 7.10695 59.1213 7.10695 59.6193 7.10695C60.12 7.10695 60.6616 7.10695 61.2439 7.10695C61.2439 7.70873 61.2439 8.25633 61.2439 8.74973C61.2439 9.24314 61.2439 9.79073 61.2439 10.3925C60.6616 10.3925 60.12 10.3925 59.6193 10.3925C59.1213 10.3925 58.5826 10.3925 58.003 10.3925ZM58.003 10.3925C58.003 9.79073 58.003 9.24314 58.003 8.74973C58.003 8.25633 58.003 7.70873 58.003 7.10695C58.5826 7.10695 59.1213 7.10695 59.6193 7.10695C60.12 7.10695 60.6616 7.10695 61.2439 7.10695C61.2439 7.70873 61.2439 8.25633 61.2439 8.74973C61.2439 9.24314 61.2439 9.79073 61.2439 10.3925C60.6616 10.3925 60.12 10.3925 59.6193 10.3925C59.1213 10.3925 58.5826 10.3925 58.003 10.3925ZM58.003 10.3925C58.003 9.79073 58.003 9.24314 58.003 8.74973C58.003 8.25633 58.003 7.70873 58.003 7.10695C58.5826 7.10695 59.1213 7.10695 59.6193 7.10695C60.12 7.10695 60.6616 7.10695 61.2439 7.10695C61.2439 7.70873 61.2439 8.25633 61.2439 8.74973C61.2439 9.24314 61.2439 9.79073 61.2439 10.3925C60.6616 10.3925 60.12 10.3925 59.6193 10.3925C59.1213 10.3925 58.5826 10.3925 58.003 10.3925ZM64.0797 10.3925C64.0797 9.79073 64.0797 9.24314 64.0797 8.74973C64.0797 8.25633 64.0797 7.70873 64.0797 7.10695C64.6593 7.10695 65.198 7.10695 65.696 7.10695C66.1968 7.10695 66.7383 7.10695 67.3207 7.10695C67.3207 7.70873 67.3207 8.25633 67.3207 8.74973C67.3207 9.24314 67.3207 9.79073 67.3207 10.3925C66.7383 10.3925 66.1968 10.3925 65.696 10.3925C65.198 10.3925 64.6593 10.3925 64.0797 10.3925ZM64.0797 10.3925C64.0797 9.79073 64.0797 9.24314 64.0797 8.74973C64.0797 8.25633 64.0797 7.70873 64.0797 7.10695C64.6593 7.10695 65.198 7.10695 65.696 7.10695C66.1968 7.10695 66.7383 7.10695 67.3207 7.10695C67.3207 7.70873 67.3207 8.25633 67.3207 8.74973C67.3207 9.24314 67.3207 9.79073 67.3207 10.3925C66.7383 10.3925 66.1968 10.3925 65.696 10.3925C65.198 10.3925 64.6593 10.3925 64.0797 10.3925ZM64.0797 10.3925C64.0797 9.79073 64.0797 9.24314 64.0797 8.74973C64.0797 8.25633 64.0797 7.70873 64.0797 7.10695C64.6593 7.10695 65.198 7.10695 65.696 7.10695C66.1968 7.10695 66.7383 7.10695 67.3207 7.10695C67.3207 7.70873 67.3207 8.25633 67.3207 8.74973C67.3207 9.24314 67.3207 9.79073 67.3207 10.3925C66.7383 10.3925 66.1968 10.3925 65.696 10.3925C65.198 10.3925 64.6593 10.3925 64.0797 10.3925ZM64.0797 10.3925C64.0797 9.79073 64.0797 9.24314 64.0797 8.74973C64.0797 8.25633 64.0797 7.70873 64.0797 7.10695C64.6593 7.10695 65.198 7.10695 65.696 7.10695C66.1968 7.10695 66.7383 7.10695 67.3207 7.10695C67.3207 7.70873 67.3207 8.25633 67.3207 8.74973C67.3207 9.24314 67.3207 9.79073 67.3207 10.3925C66.7383 10.3925 66.1968 10.3925 65.696 10.3925C65.198 10.3925 64.6593 10.3925 64.0797 10.3925ZM64.0797 10.3925C64.0797 9.79073 64.0797 9.24314 64.0797 8.74973C64.0797 8.25633 64.0797 7.70873 64.0797 7.10695C64.6593 7.10695 65.198 7.10695 65.696 7.10695C66.1968 7.10695 66.7383 7.10695 67.3207 7.10695C67.3207 7.70873 67.3207 8.25633 67.3207 8.74973C67.3207 9.24314 67.3207 9.79073 67.3207 10.3925C66.7383 10.3925 66.1968 10.3925 65.696 10.3925C65.198 10.3925 64.6593 10.3925 64.0797 10.3925ZM64.0797 10.3925C64.0797 9.79073 64.0797 9.24314 64.0797 8.74973C64.0797 8.25633 64.0797 7.70873 64.0797 7.10695C64.6593 7.10695 65.198 7.10695 65.696 7.10695C66.1968 7.10695 66.7383 7.10695 67.3207 7.10695C67.3207 7.70873 67.3207 8.25633 67.3207 8.74973C67.3207 9.24314 67.3207 9.79073 67.3207 10.3925C66.7383 10.3925 66.1968 10.3925 65.696 10.3925C65.198 10.3925 64.6593 10.3925 64.0797 10.3925ZM64.0797 10.3925C64.0797 9.79073 64.0797 9.24314 64.0797 8.74973C64.0797 8.25633 64.0797 7.70873 64.0797 7.10695C64.6593 7.10695 65.198 7.10695 65.696 7.10695C66.1968 7.10695 66.7383 7.10695 67.3207 7.10695C67.3207 7.70873 67.3207 8.25633 67.3207 8.74973C67.3207 9.24314 67.3207 9.79073 67.3207 10.3925C66.7383 10.3925 66.1968 10.3925 65.696 10.3925C65.198 10.3925 64.6593 10.3925 64.0797 10.3925ZM64.0797 10.3925C64.0797 9.79073 64.0797 9.24314 64.0797 8.74973C64.0797 8.25633 64.0797 7.70873 64.0797 7.10695C64.6593 7.10695 65.198 7.10695 65.696 7.10695C66.1968 7.10695 66.7383 7.10695 67.3207 7.10695C67.3207 7.70873 67.3207 8.25633 67.3207 8.74973C67.3207 9.24314 67.3207 9.79073 67.3207 10.3925C66.7383 10.3925 66.1968 10.3925 65.696 10.3925C65.198 10.3925 64.6593 10.3925 64.0797 10.3925ZM64.0797 10.3925C64.0797 9.79073 64.0797 9.24314 64.0797 8.74973C64.0797 8.25633 64.0797 7.70873 64.0797 7.10695C64.6593 7.10695 65.198 7.10695 65.696 7.10695C66.1968 7.10695 66.7383 7.10695 67.3207 7.10695C67.3207 7.70873 67.3207 8.25633 67.3207 8.74973C67.3207 9.24314 67.3207 9.79073 67.3207 10.3925C66.7383 10.3925 66.1968 10.3925 65.696 10.3925C65.198 10.3925 64.6593 10.3925 64.0797 10.3925ZM59.0158 8.33904C59.0158 7.73726 59.0158 7.18966 59.0158 6.69626C59.0158 6.20285 59.0158 5.65526 59.0158 5.05348C59.5954 5.05348 60.1341 5.05348 60.632 5.05348C61.1328 5.05348 61.6744 5.05348 62.2567 5.05348C62.2567 5.65526 62.2567 6.20285 62.2567 6.69626C62.2567 7.18966 62.2567 7.73726 62.2567 8.33904C61.6744 8.33904 61.1328 8.33904 60.632 8.33904C60.1341 8.33904 59.5954 8.33904 59.0158 8.33904ZM59.0158 8.33904C59.0158 7.73726 59.0158 7.18966 59.0158 6.69626C59.0158 6.20285 59.0158 5.65526 59.0158 5.05348C59.5954 5.05348 60.1341 5.05348 60.632 5.05348C61.1328 5.05348 61.6744 5.05348 62.2567 5.05348C62.2567 5.65526 62.2567 6.20285 62.2567 6.69626C62.2567 7.18966 62.2567 7.73726 62.2567 8.33904C61.6744 8.33904 61.1328 8.33904 60.632 8.33904C60.1341 8.33904 59.5954 8.33904 59.0158 8.33904ZM59.0158 8.33904C59.0158 7.73726 59.0158 7.18966 59.0158 6.69626C59.0158 6.20285 59.0158 5.65526 59.0158 5.05348C59.5954 5.05348 60.1341 5.05348 60.632 5.05348C61.1328 5.05348 61.6744 5.05348 62.2567 5.05348C62.2567 5.65526 62.2567 6.20285 62.2567 6.69626C62.2567 7.18966 62.2567 7.73726 62.2567 8.33904C61.6744 8.33904 61.1328 8.33904 60.632 8.33904C60.1341 8.33904 59.5954 8.33904 59.0158 8.33904ZM59.0158 8.33904C59.0158 7.73726 59.0158 7.18966 59.0158 6.69626C59.0158 6.20285 59.0158 5.65526 59.0158 5.05348C59.5954 5.05348 60.1341 5.05348 60.632 5.05348C61.1328 5.05348 61.6744 5.05348 62.2567 5.05348C62.2567 5.65526 62.2567 6.20285 62.2567 6.69626C62.2567 7.18966 62.2567 7.73726 62.2567 8.33904C61.6744 8.33904 61.1328 8.33904 60.632 8.33904C60.1341 8.33904 59.5954 8.33904 59.0158 8.33904ZM59.0158 8.33904C59.0158 7.73726 59.0158 7.18966 59.0158 6.69626C59.0158 6.20285 59.0158 5.65526 59.0158 5.05348C59.5954 5.05348 60.1341 5.05348 60.632 5.05348C61.1328 5.05348 61.6744 5.05348 62.2567 5.05348C62.2567 5.65526 62.2567 6.20285 62.2567 6.69626C62.2567 7.18966 62.2567 7.73726 62.2567 8.33904C61.6744 8.33904 61.1328 8.33904 60.632 8.33904C60.1341 8.33904 59.5954 8.33904 59.0158 8.33904ZM59.0158 8.33904C59.0158 7.73726 59.0158 7.18966 59.0158 6.69626C59.0158 6.20285 59.0158 5.65526 59.0158 5.05348C59.5954 5.05348 60.1341 5.05348 60.632 5.05348C61.1328 5.05348 61.6744 5.05348 62.2567 5.05348C62.2567 5.65526 62.2567 6.20285 62.2567 6.69626C62.2567 7.18966 62.2567 7.73726 62.2567 8.33904C61.6744 8.33904 61.1328 8.33904 60.632 8.33904C60.1341 8.33904 59.5954 8.33904 59.0158 8.33904ZM59.0158 8.33904C59.0158 7.73726 59.0158 7.18966 59.0158 6.69626C59.0158 6.20285 59.0158 5.65526 59.0158 5.05348C59.5954 5.05348 60.1341 5.05348 60.632 5.05348C61.1328 5.05348 61.6744 5.05348 62.2567 5.05348C62.2567 5.65526 62.2567 6.20285 62.2567 6.69626C62.2567 7.18966 62.2567 7.73726 62.2567 8.33904C61.6744 8.33904 61.1328 8.33904 60.632 8.33904C60.1341 8.33904 59.5954 8.33904 59.0158 8.33904ZM59.0158 8.33904C59.0158 7.73726 59.0158 7.18966 59.0158 6.69626C59.0158 6.20285 59.0158 5.65526 59.0158 5.05348C59.5954 5.05348 60.1341 5.05348 60.632 5.05348C61.1328 5.05348 61.6744 5.05348 62.2567 5.05348C62.2567 5.65526 62.2567 6.20285 62.2567 6.69626C62.2567 7.18966 62.2567 7.73726 62.2567 8.33904C61.6744 8.33904 61.1328 8.33904 60.632 8.33904C60.1341 8.33904 59.5954 8.33904 59.0158 8.33904ZM59.0158 8.33904C59.0158 7.73726 59.0158 7.18966 59.0158 6.69626C59.0158 6.20285 59.0158 5.65526 59.0158 5.05348C59.5954 5.05348 60.1341 5.05348 60.632 5.05348C61.1328 5.05348 61.6744 5.05348 62.2567 5.05348C62.2567 5.65526 62.2567 6.20285 62.2567 6.69626C62.2567 7.18966 62.2567 7.73726 62.2567 8.33904C61.6744 8.33904 61.1328 8.33904 60.632 8.33904C60.1341 8.33904 59.5954 8.33904 59.0158 8.33904ZM63.067 8.33904C63.067 7.73726 63.067 7.18966 63.067 6.69626C63.067 6.20285 63.067 5.65526 63.067 5.05348C63.6465 5.05348 64.1852 5.05348 64.6832 5.05348C65.184 5.05348 65.7255 5.05348 66.3079 5.05348C66.3079 5.65526 66.3079 6.20285 66.3079 6.69626C66.3079 7.18966 66.3079 7.73726 66.3079 8.33904C65.7255 8.33904 65.184 8.33904 64.6832 8.33904C64.1852 8.33904 63.6465 8.33904 63.067 8.33904ZM63.067 8.33904C63.067 7.73726 63.067 7.18966 63.067 6.69626C63.067 6.20285 63.067 5.65526 63.067 5.05348C63.6465 5.05348 64.1852 5.05348 64.6832 5.05348C65.184 5.05348 65.7255 5.05348 66.3079 5.05348C66.3079 5.65526 66.3079 6.20285 66.3079 6.69626C66.3079 7.18966 66.3079 7.73726 66.3079 8.33904C65.7255 8.33904 65.184 8.33904 64.6832 8.33904C64.1852 8.33904 63.6465 8.33904 63.067 8.33904ZM63.067 8.33904C63.067 7.73726 63.067 7.18966 63.067 6.69626C63.067 6.20285 63.067 5.65526 63.067 5.05348C63.6465 5.05348 64.1852 5.05348 64.6832 5.05348C65.184 5.05348 65.7255 5.05348 66.3079 5.05348C66.3079 5.65526 66.3079 6.20285 66.3079 6.69626C66.3079 7.18966 66.3079 7.73726 66.3079 8.33904C65.7255 8.33904 65.184 8.33904 64.6832 8.33904C64.1852 8.33904 63.6465 8.33904 63.067 8.33904ZM63.067 8.33904C63.067 7.73726 63.067 7.18966 63.067 6.69626C63.067 6.20285 63.067 5.65526 63.067 5.05348C63.6465 5.05348 64.1852 5.05348 64.6832 5.05348C65.184 5.05348 65.7255 5.05348 66.3079 5.05348C66.3079 5.65526 66.3079 6.20285 66.3079 6.69626C66.3079 7.18966 66.3079 7.73726 66.3079 8.33904C65.7255 8.33904 65.184 8.33904 64.6832 8.33904C64.1852 8.33904 63.6465 8.33904 63.067 8.33904ZM63.067 8.33904C63.067 7.73726 63.067 7.18966 63.067 6.69626C63.067 6.20285 63.067 5.65526 63.067 5.05348C63.6465 5.05348 64.1852 5.05348 64.6832 5.05348C65.184 5.05348 65.7255 5.05348 66.3079 5.05348C66.3079 5.65526 66.3079 6.20285 66.3079 6.69626C66.3079 7.18966 66.3079 7.73726 66.3079 8.33904C65.7255 8.33904 65.184 8.33904 64.6832 8.33904C64.1852 8.33904 63.6465 8.33904 63.067 8.33904ZM63.067 8.33904C63.067 7.73726 63.067 7.18966 63.067 6.69626C63.067 6.20285 63.067 5.65526 63.067 5.05348C63.6465 5.05348 64.1852 5.05348 64.6832 5.05348C65.184 5.05348 65.7255 5.05348 66.3079 5.05348C66.3079 5.65526 66.3079 6.20285 66.3079 6.69626C66.3079 7.18966 66.3079 7.73726 66.3079 8.33904C65.7255 8.33904 65.184 8.33904 64.6832 8.33904C64.1852 8.33904 63.6465 8.33904 63.067 8.33904ZM63.067 8.33904C63.067 7.73726 63.067 7.18966 63.067 6.69626C63.067 6.20285 63.067 5.65526 63.067 5.05348C63.6465 5.05348 64.1852 5.05348 64.6832 5.05348C65.184 5.05348 65.7255 5.05348 66.3079 5.05348C66.3079 5.65526 66.3079 6.20285 66.3079 6.69626C66.3079 7.18966 66.3079 7.73726 66.3079 8.33904C65.7255 8.33904 65.184 8.33904 64.6832 8.33904C64.1852 8.33904 63.6465 8.33904 63.067 8.33904ZM63.067 8.33904C63.067 7.73726 63.067 7.18966 63.067 6.69626C63.067 6.20285 63.067 5.65526 63.067 5.05348C63.6465 5.05348 64.1852 5.05348 64.6832 5.05348C65.184 5.05348 65.7255 5.05348 66.3079 5.05348C66.3079 5.65526 66.3079 6.20285 66.3079 6.69626C66.3079 7.18966 66.3079 7.73726 66.3079 8.33904C65.7255 8.33904 65.184 8.33904 64.6832 8.33904C64.1852 8.33904 63.6465 8.33904 63.067 8.33904ZM63.067 8.33904C63.067 7.73726 63.067 7.18966 63.067 6.69626C63.067 6.20285 63.067 5.65526 63.067 5.05348C63.6465 5.05348 64.1852 5.05348 64.6832 5.05348C65.184 5.05348 65.7255 5.05348 66.3079 5.05348C66.3079 5.65526 66.3079 6.20285 66.3079 6.69626C66.3079 7.18966 66.3079 7.73726 66.3079 8.33904C65.7255 8.33904 65.184 8.33904 64.6832 8.33904C64.1852 8.33904 63.6465 8.33904 63.067 8.33904ZM60.0286 6.28556C60.0286 5.68378 60.0286 5.13619 60.0286 4.64278C60.0286 4.14938 60.0286 3.60178 60.0286 3C60.6081 3 61.1469 3 61.6448 3C62.1456 3 62.6872 3 63.2695 3C63.2695 3.60178 63.2695 4.14938 63.2695 4.64278C63.2695 5.13619 63.2695 5.68378 63.2695 6.28556C62.6872 6.28556 62.1456 6.28556 61.6448 6.28556C61.1469 6.28556 60.6081 6.28556 60.0286 6.28556ZM60.0286 6.28556C60.0286 5.68378 60.0286 5.13619 60.0286 4.64278C60.0286 4.14938 60.0286 3.60178 60.0286 3C60.6081 3 61.1469 3 61.6448 3C62.1456 3 62.6872 3 63.2695 3C63.2695 3.60178 63.2695 4.14938 63.2695 4.64278C63.2695 5.13619 63.2695 5.68378 63.2695 6.28556C62.6872 6.28556 62.1456 6.28556 61.6448 6.28556C61.1469 6.28556 60.6081 6.28556 60.0286 6.28556ZM60.0286 6.28556C60.0286 5.68378 60.0286 5.13619 60.0286 4.64278C60.0286 4.14938 60.0286 3.60178 60.0286 3C60.6081 3 61.1469 3 61.6448 3C62.1456 3 62.6872 3 63.2695 3C63.2695 3.60178 63.2695 4.14938 63.2695 4.64278C63.2695 5.13619 63.2695 5.68378 63.2695 6.28556C62.6872 6.28556 62.1456 6.28556 61.6448 6.28556C61.1469 6.28556 60.6081 6.28556 60.0286 6.28556ZM60.0286 6.28556C60.0286 5.68378 60.0286 5.13619 60.0286 4.64278C60.0286 4.14938 60.0286 3.60178 60.0286 3C60.6081 3 61.1469 3 61.6448 3C62.1456 3 62.6872 3 63.2695 3C63.2695 3.60178 63.2695 4.14938 63.2695 4.64278C63.2695 5.13619 63.2695 5.68378 63.2695 6.28556C62.6872 6.28556 62.1456 6.28556 61.6448 6.28556C61.1469 6.28556 60.6081 6.28556 60.0286 6.28556ZM60.0286 6.28556C60.0286 5.68378 60.0286 5.13619 60.0286 4.64278C60.0286 4.14938 60.0286 3.60178 60.0286 3C60.6081 3 61.1469 3 61.6448 3C62.1456 3 62.6872 3 63.2695 3C63.2695 3.60178 63.2695 4.14938 63.2695 4.64278C63.2695 5.13619 63.2695 5.68378 63.2695 6.28556C62.6872 6.28556 62.1456 6.28556 61.6448 6.28556C61.1469 6.28556 60.6081 6.28556 60.0286 6.28556ZM60.0286 6.28556C60.0286 5.68378 60.0286 5.13619 60.0286 4.64278C60.0286 4.14938 60.0286 3.60178 60.0286 3C60.6081 3 61.1469 3 61.6448 3C62.1456 3 62.6872 3 63.2695 3C63.2695 3.60178 63.2695 4.14938 63.2695 4.64278C63.2695 5.13619 63.2695 5.68378 63.2695 6.28556C62.6872 6.28556 62.1456 6.28556 61.6448 6.28556C61.1469 6.28556 60.6081 6.28556 60.0286 6.28556ZM60.0286 6.28556C60.0286 5.68378 60.0286 5.13619 60.0286 4.64278C60.0286 4.14938 60.0286 3.60178 60.0286 3C60.6081 3 61.1469 3 61.6448 3C62.1456 3 62.6872 3 63.2695 3C63.2695 3.60178 63.2695 4.14938 63.2695 4.64278C63.2695 5.13619 63.2695 5.68378 63.2695 6.28556C62.6872 6.28556 62.1456 6.28556 61.6448 6.28556C61.1469 6.28556 60.6081 6.28556 60.0286 6.28556ZM60.0286 6.28556C60.0286 5.68378 60.0286 5.13619 60.0286 4.64278C60.0286 4.14938 60.0286 3.60178 60.0286 3C60.6081 3 61.1469 3 61.6448 3C62.1456 3 62.6872 3 63.2695 3C63.2695 3.60178 63.2695 4.14938 63.2695 4.64278C63.2695 5.13619 63.2695 5.68378 63.2695 6.28556C62.6872 6.28556 62.1456 6.28556 61.6448 6.28556C61.1469 6.28556 60.6081 6.28556 60.0286 6.28556ZM60.0286 6.28556C60.0286 5.68378 60.0286 5.13619 60.0286 4.64278C60.0286 4.14938 60.0286 3.60178 60.0286 3C60.6081 3 61.1469 3 61.6448 3C62.1456 3 62.6872 3 63.2695 3C63.2695 3.60178 63.2695 4.14938 63.2695 4.64278C63.2695 5.13619 63.2695 5.68378 63.2695 6.28556C62.6872 6.28556 62.1456 6.28556 61.6448 6.28556C61.1469 6.28556 60.6081 6.28556 60.0286 6.28556ZM62.0542 6.28556C62.0542 5.68378 62.0542 5.13619 62.0542 4.64278C62.0542 4.14938 62.0542 3.60178 62.0542 3C62.6337 3 63.1725 3 63.6704 3C64.1712 3 64.7127 3 65.2951 3C65.2951 3.60178 65.2951 4.14938 65.2951 4.64278C65.2951 5.13619 65.2951 5.68378 65.2951 6.28556C64.7127 6.28556 64.1712 6.28556 63.6704 6.28556C63.1725 6.28556 62.6337 6.28556 62.0542 6.28556ZM62.0542 6.28556C62.0542 5.68378 62.0542 5.13619 62.0542 4.64278C62.0542 4.14938 62.0542 3.60178 62.0542 3C62.6337 3 63.1725 3 63.6704 3C64.1712 3 64.7127 3 65.2951 3C65.2951 3.60178 65.2951 4.14938 65.2951 4.64278C65.2951 5.13619 65.2951 5.68378 65.2951 6.28556C64.7127 6.28556 64.1712 6.28556 63.6704 6.28556C63.1725 6.28556 62.6337 6.28556 62.0542 6.28556ZM62.0542 6.28556C62.0542 5.68378 62.0542 5.13619 62.0542 4.64278C62.0542 4.14938 62.0542 3.60178 62.0542 3C62.6337 3 63.1725 3 63.6704 3C64.1712 3 64.7127 3 65.2951 3C65.2951 3.60178 65.2951 4.14938 65.2951 4.64278C65.2951 5.13619 65.2951 5.68378 65.2951 6.28556C64.7127 6.28556 64.1712 6.28556 63.6704 6.28556C63.1725 6.28556 62.6337 6.28556 62.0542 6.28556ZM62.0542 6.28556C62.0542 5.68378 62.0542 5.13619 62.0542 4.64278C62.0542 4.14938 62.0542 3.60178 62.0542 3C62.6337 3 63.1725 3 63.6704 3C64.1712 3 64.7127 3 65.2951 3C65.2951 3.60178 65.2951 4.14938 65.2951 4.64278C65.2951 5.13619 65.2951 5.68378 65.2951 6.28556C64.7127 6.28556 64.1712 6.28556 63.6704 6.28556C63.1725 6.28556 62.6337 6.28556 62.0542 6.28556ZM62.0542 6.28556C62.0542 5.68378 62.0542 5.13619 62.0542 4.64278C62.0542 4.14938 62.0542 3.60178 62.0542 3C62.6337 3 63.1725 3 63.6704 3C64.1712 3 64.7127 3 65.2951 3C65.2951 3.60178 65.2951 4.14938 65.2951 4.64278C65.2951 5.13619 65.2951 5.68378 65.2951 6.28556C64.7127 6.28556 64.1712 6.28556 63.6704 6.28556C63.1725 6.28556 62.6337 6.28556 62.0542 6.28556ZM62.0542 6.28556C62.0542 5.68378 62.0542 5.13619 62.0542 4.64278C62.0542 4.14938 62.0542 3.60178 62.0542 3C62.6337 3 63.1725 3 63.6704 3C64.1712 3 64.7127 3 65.2951 3C65.2951 3.60178 65.2951 4.14938 65.2951 4.64278C65.2951 5.13619 65.2951 5.68378 65.2951 6.28556C64.7127 6.28556 64.1712 6.28556 63.6704 6.28556C63.1725 6.28556 62.6337 6.28556 62.0542 6.28556ZM62.0542 6.28556C62.0542 5.68378 62.0542 5.13619 62.0542 4.64278C62.0542 4.14938 62.0542 3.60178 62.0542 3C62.6337 3 63.1725 3 63.6704 3C64.1712 3 64.7127 3 65.2951 3C65.2951 3.60178 65.2951 4.14938 65.2951 4.64278C65.2951 5.13619 65.2951 5.68378 65.2951 6.28556C64.7127 6.28556 64.1712 6.28556 63.6704 6.28556C63.1725 6.28556 62.6337 6.28556 62.0542 6.28556ZM62.0542 6.28556C62.0542 5.68378 62.0542 5.13619 62.0542 4.64278C62.0542 4.14938 62.0542 3.60178 62.0542 3C62.6337 3 63.1725 3 63.6704 3C64.1712 3 64.7127 3 65.2951 3C65.2951 3.60178 65.2951 4.14938 65.2951 4.64278C65.2951 5.13619 65.2951 5.68378 65.2951 6.28556C64.7127 6.28556 64.1712 6.28556 63.6704 6.28556C63.1725 6.28556 62.6337 6.28556 62.0542 6.28556ZM62.0542 6.28556C62.0542 5.68378 62.0542 5.13619 62.0542 4.64278C62.0542 4.14938 62.0542 3.60178 62.0542 3C62.6337 3 63.1725 3 63.6704 3C64.1712 3 64.7127 3 65.2951 3C65.2951 3.60178 65.2951 4.14938 65.2951 4.64278C65.2951 5.13619 65.2951 5.68378 65.2951 6.28556C64.7127 6.28556 64.1712 6.28556 63.6704 6.28556C63.1725 6.28556 62.6337 6.28556 62.0542 6.28556Z" fill="#9730FF"/>
<path d="M46.7788 26.8203V25.1775V23.5348H48.395H50.0197V25.1775V26.8203H48.395H46.7788ZM45.766 24.7668V23.1241V21.4813H47.3822H49.0069V23.1241V24.7668H47.3822H45.766ZM47.7916 24.7668V23.1241V21.4813H49.4078H51.0325V23.1241V24.7668H49.4078H47.7916ZM44.7532 22.7134V21.0706V19.4278H46.3694H47.9941V21.0706V22.7134H46.3694H44.7532ZM48.8044 22.7134V21.0706V19.4278H50.4206H52.0453V21.0706V22.7134H50.4206H48.8044ZM43.7404 20.6599V19.0171V17.3743H45.3567H46.9813V19.0171V20.6599H45.3567H43.7404ZM49.8171 20.6599V19.0171V17.3743H51.4334H53.0581V19.0171V20.6599H51.4334H49.8171ZM42.7276 18.6064V16.9636V15.3209H44.3439H45.9686V16.9636V18.6064H44.3439H42.7276ZM50.8299 18.6064V16.9636V15.3209H52.4462H54.0709V16.9636V18.6064H52.4462H50.8299ZM41.7148 16.5529V14.9102V13.2674H43.3311H44.9558V14.9102V16.5529H43.3311H41.7148ZM51.8427 16.5529V14.9102V13.2674H53.459H55.0836V14.9102V16.5529H53.459H51.8427ZM41.7148 14.4995V12.8567V11.2139H43.3311H44.9558V12.8567V14.4995H43.3311H41.7148ZM51.8427 14.4995V12.8567V11.2139H53.459H55.0836V12.8567V14.4995H53.459H51.8427ZM41.7148 12.446V10.8032V9.16043H43.3311H44.9558V10.8032V12.446H43.3311H41.7148ZM51.8427 12.446V10.8032V9.16043H53.459H55.0836V10.8032V12.446H53.459H51.8427ZM41.7148 10.3925V8.74973V7.10695H43.3311H44.9558V8.74973V10.3925H43.3311H41.7148ZM51.8427 10.3925V8.74973V7.10695H53.459H55.0836V8.74973V10.3925H53.459H51.8427ZM41.7148 8.33904V6.69626V5.05348H43.3311H44.9558V6.69626V8.33904H43.3311H41.7148ZM51.8427 8.33904V6.69626V5.05348H53.459H55.0836V6.69626V8.33904H53.459H51.8427ZM41.7148 6.28556V4.64278V3H43.3311H44.9558V4.64278V6.28556H43.3311H41.7148ZM51.8427 6.28556V4.64278V3H53.459H55.0836V4.64278V6.28556H53.459H51.8427Z" fill="#9730FF"/>
<path d="M31.5251 26.8203V25.1775V23.5348H33.1414H34.7661V25.1775V26.8203H33.1414H31.5251ZM33.5507 26.8203V25.1775V23.5348H35.167H36.7916V25.1775V26.8203H35.167H33.5507ZM35.5763 26.8203V25.1775V23.5348H37.1925H38.8172V25.1775V26.8203H37.1925H35.5763ZM37.6019 26.8203V25.1775V23.5348H39.2181H40.8428V25.1775V26.8203H39.2181H37.6019ZM31.5251 24.7668V23.1241V21.4813H33.1414H34.7661V23.1241V24.7668H33.1414H31.5251ZM31.5251 22.7134V21.0706V19.4278H33.1414H34.7661V21.0706V22.7134H33.1414H31.5251ZM31.5251 20.6599V19.0171V17.3743H33.1414H34.7661V19.0171V20.6599H33.1414H31.5251ZM31.5251 18.6064V16.9636V15.3209H33.1414H34.7661V16.9636V18.6064H33.1414H31.5251ZM31.5251 16.5529V14.9102V13.2674H33.1414H34.7661V14.9102V16.5529H33.1414H31.5251ZM31.5251 14.4995V12.8567V11.2139H33.1414H34.7661V12.8567V14.4995H33.1414H31.5251ZM31.5251 12.446V10.8032V9.16043H33.1414H34.7661V10.8032V12.446H33.1414H31.5251ZM31.5251 10.3925V8.74973V7.10695H33.1414H34.7661V8.74973V10.3925H33.1414H31.5251ZM31.5251 8.33904V6.69626V5.05348H33.1414H34.7661V6.69626V8.33904H33.1414H31.5251ZM31.5251 6.28556V4.64278V3H33.1414H34.7661V4.64278V6.28556H33.1414H31.5251Z" fill="#9730FF"/>
<path d="M19.288 26.8203V25.1775V23.5348H20.9043H22.5289V25.1775V26.8203H20.9043H19.288ZM21.3136 26.8203V25.1775V23.5348H22.9298H24.5545V25.1775V26.8203H22.9298H21.3136ZM23.3392 26.8203V25.1775V23.5348H24.9554H26.5801V25.1775V26.8203H24.9554H23.3392ZM17.2625 24.7668V23.1241V21.4813H18.8787H20.5034V23.1241V24.7668H18.8787H17.2625ZM25.3648 24.7668V23.1241V21.4813H26.981H28.6057V23.1241V24.7668H26.981H25.3648ZM17.2625 22.7134V21.0706V19.4278H18.8787H20.5034V21.0706V22.7134H18.8787H17.2625ZM25.3648 22.7134V21.0706V19.4278H26.981H28.6057V21.0706V22.7134H26.981H25.3648ZM17.2625 20.6599V19.0171V17.3743H18.8787H20.5034V19.0171V20.6599H18.8787H17.2625ZM25.3648 20.6599V19.0171V17.3743H26.981H28.6057V19.0171V20.6599H26.981H25.3648ZM17.2625 18.6064V16.9636V15.3209H18.8787H20.5034V16.9636V18.6064H18.8787H17.2625ZM25.3648 18.6064V16.9636V15.3209H26.981H28.6057V16.9636V18.6064H26.981H25.3648ZM17.2625 16.5529V14.9102V13.2674H18.8787H20.5034V14.9102V16.5529H18.8787H17.2625ZM25.3648 16.5529V14.9102V13.2674H26.981H28.6057V14.9102V16.5529H26.981H25.3648ZM17.2625 14.4995V12.8567V11.2139H18.8787H20.5034V12.8567V14.4995H18.8787H17.2625ZM25.3648 14.4995V12.8567V11.2139H26.981H28.6057V12.8567V14.4995H26.981H25.3648ZM17.2625 12.446V10.8032V9.16043H18.8787H20.5034V10.8032V12.446H18.8787H17.2625ZM25.3648 12.446V10.8032V9.16043H26.981H28.6057V10.8032V12.446H26.981H25.3648ZM17.2625 10.3925V8.74973V7.10695H18.8787H20.5034V8.74973V10.3925H18.8787H17.2625ZM25.3648 10.3925V8.74973V7.10695H26.981H28.6057V8.74973V10.3925H26.981H25.3648ZM17.2625 8.33904V6.69626V5.05348H18.8787H20.5034V6.69626V8.33904H18.8787H17.2625ZM25.3648 8.33904V6.69626V5.05348H26.981H28.6057V6.69626V8.33904H26.981H25.3648ZM19.288 6.28556V4.64278V3H20.9043H22.5289V4.64278V6.28556H20.9043H19.288ZM21.3136 6.28556V4.64278V3H22.9298H24.5545V4.64278V6.28556H22.9298H21.3136ZM23.3392 6.28556V4.64278V3H24.9554H26.5801V4.64278V6.28556H24.9554H23.3392Z" fill="#9730FF"/>
<path d="M5.02558 26.8203V25.1775V23.5348H6.64182H8.2665V25.1775V26.8203H6.64182H5.02558ZM7.05115 26.8203V25.1775V23.5348H8.66739H10.2921V25.1775V26.8203H8.66739H7.05115ZM9.07673 26.8203V25.1775V23.5348H10.693H12.3176V25.1775V26.8203H10.693H9.07673ZM3 24.7668V23.1241V21.4813H4.61624H6.24092V23.1241V24.7668H4.61624H3ZM11.1023 24.7668V23.1241V21.4813H12.7185H14.3432V23.1241V24.7668H12.7185H11.1023ZM3 22.7134V21.0706V19.4278H4.61624H6.24092V21.0706V22.7134H4.61624H3ZM11.1023 22.7134V21.0706V19.4278H12.7185H14.3432V21.0706V22.7134H12.7185H11.1023ZM3 20.6599V19.0171V17.3743H4.61624H6.24092V19.0171V20.6599H4.61624H3ZM11.1023 20.6599V19.0171V17.3743H12.7185H14.3432V19.0171V20.6599H12.7185H11.1023ZM9.07673 18.6064V16.9636V15.3209H10.693H12.3176V16.9636V18.6064H10.693H9.07673ZM7.05115 16.5529V14.9102V13.2674H8.66739H10.2921V14.9102V16.5529H8.66739H7.05115ZM5.02558 14.4995V12.8567V11.2139H6.64182H8.2665V12.8567V14.4995H6.64182H5.02558ZM3 12.446V10.8032V9.16043H4.61624H6.24092V10.8032V12.446H4.61624H3ZM3 10.3925V8.74973V7.10695H4.61624H6.24092V8.74973V10.3925H4.61624H3ZM11.1023 10.3925V8.74973V7.10695H12.7185H14.3432V8.74973V10.3925H12.7185H11.1023ZM3 8.33904V6.69626V5.05348H4.61624H6.24092V6.69626V8.33904H4.61624H3ZM11.1023 8.33904V6.69626V5.05348H12.7185H14.3432V6.69626V8.33904H12.7185H11.1023ZM5.02558 6.28556V4.64278V3H6.64182H8.2665V4.64278V6.28556H6.64182H5.02558ZM7.05115 6.28556V4.64278V3H8.66739H10.2921V4.64278V6.28556H8.66739H7.05115ZM9.07673 6.28556V4.64278V3H10.693H12.3176V4.64278V6.28556H10.693H9.07673Z" fill="#9730FF"/>
</svg>
